<?xml version="1.0" encoding="utf-8"?>
<!-- Generator: Adobe Illustrator 23.0.2, SVG Export Plug-In . SVG Version: 6.00 Build 0)  -->
<svg version="1.1" id="LOGO-TWINS" xmlns="http://www.w3.org/2000/svg" xmlns:xlink="http://www.w3.org/1999/xlink" x="0px" y="0px"
	 viewBox="0 0 800 800" style="enable-background:new 0 0 800 800;" xml:space="preserve">
<style type="text/css">
	.st0{fill:transparent;
		-webkit-animation: sombra 10s forwards 10s;
		-moz-animation: sombra 10s forwards 10s;
		-o-animation: sombra 10s forwards 10s;
		animation: sombra 10s forwards 10s;
	}
	.st1{fill:transparent;
		-webkit-animation: hilo1 10s forwards 9s;
		-moz-animation: hilo1 10s forwards 9s;
		-o-animation: hilo1 10s forwards 9s;
		animation: hilo1 10s forwards 9s;
	}
	.st2{fill:transparent;
		-webkit-animation: hilo2 10s forwards 9s;
		-moz-animation: hilo2 10s forwards 9s;
		-o-animation: hilo2 10s forwards 9s;
		animation: hilo2 10s forwards 9s;
	}
	.st3{fill:transparent;
		-webkit-animation: logoT2 10s forwards 6s;
		-moz-animation: logoT2 10s forwards 6s;
		-o-animation: logoT2 10s forwards 6s;
		animation: logoT2 10s forwards 6s;
	}
	.st4{fill:transparent;
		-webkit-animation: logoT1 10s forwards 6s;
		-moz-animation: logoT1 10s forwards 6s;
		-o-animation: logoT1 10s forwards 6s;
		animation: logoT1 10s forwards 6s;
	}
	.st5{fill:transparent;
		-webkit-animation: logoT5 10s forwards 7s;
		-moz-animation: logoT5 10s forwards 7s;
		-o-animation: logoT5 10s forwards 7s;
		animation: logoT5 10s forwards 7s;
	}
	.st6{fill:transparent;
		-webkit-animation: brillo 10s forwards 8s;
		-moz-animation: brillo 10s forwards 8s;
		-o-animation: brillo 10s forwards 8s;
		animation: brillo 10s forwards 8s;
	}
	.st7{fill:none;
	stroke:#cc9900;
	stroke-width:2;
	stroke-dasharray: 3600;
	stroke-dashoffset: 0;
	stroke-miterlimit:10;
	-webkit-animation: animacion 10s forwards;
		-moz-animation: animacion 10s forwards;
		-o-animation: animacion 10s forwards;
		animation: animacion 10s forwards;
	}
/* Silueta */
	@-webkit-keyframes animacion {
			0% {
				stroke-dashoffset: 3600;
			}
			90% {
				stroke: #cc9900;
			}

			100% {
				stroke-dashoffset: 0;
				stroke: transparent;
			}
		}
		@-keyframes animacion {
			0% {
				stroke-dashoffset: 3600;
			}
			90% {
				stroke: #cc9900;
			}

			100% {
				stroke-dashoffset: 0;
				stroke: transparent;
			}
		}
/* logoT1 */
		@-webkit-keyframes logoT1 {
			from {
				fill: transparent;
			}

			to {
				fill: url(#LogoTW_1_);
			}
		}

		@-keyframes logoT1 {
			from {
				fill: transparent;
			}

			to {
				fill: url(#LogoTW_1_);
			}
		}
/* logoT2 */
		@-webkit-keyframes logoT2 {
			from {
				fill: transparent;
			}

			to {
				fill: url(#LogoIDS_1_);
			}
		}

		@-keyframes logoT2 {
			from {
				fill: transparent;
			}

			to {
				fill: url(#LogoIDS_1_);
			}
		}
/* logoT5 */
		@-webkit-keyframes logoT5 {
			from {
				fill: transparent;
			}

			to {
				fill: url(#LogoEstrella_1_);
			}
		}

		@-keyframes logoT5 {
			from {
				fill: transparent;
			}

			to {
				fill: url(#LogoEstrella_1_);
			}
		}
/* brillo T6 */
		@-webkit-keyframes brillo {
			from {
				fill: transparent;
			}

			to {
				fill: #FFFFFF;
			}
		}

		@-keyframes brillo {
			from {
				fill: transparent;
			}

			to {
				fill: #FFFFFF;
			}
		}
/* hilo1 */
		@-webkit-keyframes hilo1 {
			from {
				fill: transparent;
			}

			to {
				fill: #951B81;
			}
		}

		@-keyframes hilo1 {
			from {
				fill: transparent;
			}

			to {
				fill: #951B81;
			}
		}
/* hilo2 */
		@-webkit-keyframes hilo2 {
			from {
				fill: transparent;
			}

			to {
				fill: #312783;
			}
		}

		@-keyframes hilo2 {
			from {
				fill: transparent;
			}

			to {
				fill: #312783;
			}
		}
/* sombra */
		@-webkit-keyframes sombra {
			from {
				fill: transparent;
			}

			to {
				fill: #EDEDED;
			}
		}

		@-keyframes sombra {
			from {
				fill: transparent;
			}

			to {
				fill: #EDEDED;
			}
		}

</style>
<path id="SOMBRA" class="st0" d="M314.7,258.6C307.3,271,301,283,295.9,294c0,0,0,0.1-0.1,0.1c-2.3,4.6-4.3,9.4-6.1,14.2
	c-1.8,4.8-3.4,9.4-4.6,13.6c-1.2,4-1.9,7.6-2.1,10.8c0,0.4-0.1,0.8-0.1,1.1c4.5-3,9.1-6.5,13.6-10.3c6.2-5.3,12-11.6,17.1-18.7
	c6-8.4,10.8-16.7,14.2-24.6c2.8-6.3,4.4-12.9,5-19.6c0.4-5.1-1.1-8.9-5-12.1c-2.9-2.5-4.4-5-5.1-7.4
	C321.2,246.7,318.6,252.5,314.7,258.6z M205.2,696.3c-3.3,0-6.5-0.3-9.8-0.8c-17.4-2.8-32.7-12.9-41.9-27.6
	c-9.4-15.1-12.9-34.2-9.7-53.6c1.5-9,4.5-18,9-26.8c3.4-6.6,7.2-12.8,11-18.8c1.7-2.7,3.5-5.5,5.1-8.3c4.7-7.8,9.2-16.2,11.1-25.2
	c0.1-0.6,0.3-1.3,0.4-1.9c-8,3.1-16.4,3.8-24.5,1.9c-9.2-2.1-17.8-7.7-23.6-15.6c-6.4-8.6-8.7-18.6-6.7-28.2
	c2.9-13.5,13.8-22.9,26.5-22.9c0,0,0.1,0,0.1,0c12,0.1,21.9,6.6,28.1,12c4.6,4,8.5,8.7,11.7,13.9c4.8-11.7,4-24.9,2.8-32.9
	c-1.4-9.6-4.4-19-7.3-27.6c-1.3-3.9-2.7-7.7-4-11.6c-0.6-1.7-1.2-3.3-1.7-5c-1.3,0-2.6,0-3.9-0.1c-4.8-0.3-9.4-1.4-12.9-3
	c-8-3.7-8.5-9.3-8.3-11.5c0.1-1.2,0.5-3.4,2.2-5.6c-0.2-1.3,0-2.6,0.5-3.9c0.8-2.1,2.3-3.7,4.4-5.5c-4.2-3.5-7.5-7.4-9.9-11.5
	c-1.6-2.8-2.9-5.8-3.8-9c-0.1,0.1-0.1,0.2-0.2,0.3c-3.6,6-7.6,12-11.9,17.9c-4.4,6-9.2,11.4-14.1,16c-5.2,4.9-10.7,8.7-16.5,11.3
	c-6.2,2.9-12.8,4.1-19.5,3.6c-8.8-0.7-16-5-20.8-12.6c-4-6.2-7-13.6-9-22c-1.9-7.9-3.1-15.9-3.6-23.6c-0.5-7.6-0.7-13.6-0.7-18.2
	c0.3-24.5,3.5-47.5,9.5-68.7C68,255,73.3,239.8,79,225.9c-6.2-0.2-11.3-1.3-15.6-3.3c0,0-0.1,0-0.1-0.1c-4.5-2.2-7.9-5.1-10.1-8.7
	c-2.2-3.5-3.3-7.2-3.3-10.9c0-3.2,0.4-6.4,1.4-9.5c0.9-3,2.2-5.7,3.8-8.1c1.1-1.7,2.6-3.1,4.5-4.2c2.6-1.5,5.4-1.9,8-1.2
	c1.8,0.5,4.4,1.8,6.3,5.2c1.3,1.8,4.9,2.1,7,2.2c4.9,0.2,11.1-0.7,18.3-2.5c3.7-6.3,7.3-12,10.6-16.8c3.6-5.2,7-10,10-14.3
	c3.3-4.6,6.6-8.9,9.8-12.6c0.1-0.1,0.1-0.2,0.2-0.2c4.5-4.8,9-8.6,13.4-11.3c4.2-2.8,8.8-4.7,13.7-5.6c4.2-0.7,10.7-0.5,17.6,4.9
	c0.2,0.2,0.4,0.3,0.6,0.5c3.1,3,5.6,6.7,7.3,10.8c0.1,0.2,0.1,0.3,0.2,0.5c1.2,3.6,1.6,7.7,1.2,12.8c5.4-2.3,10.8-4.8,16.2-7.2
	c11.1-5.1,21.9-10,32.2-14.8c10.3-4.7,20.2-9.2,29.4-13.2c9.3-4.1,17.6-7.4,24.8-9.9c15.9-6,31.4-10.4,46.3-13.1
	c15-2.7,28.6-3.8,40.5-3.2c12.4,0.6,23,3.2,31.4,7.6c9.3,4.9,15.4,12,18.2,21.1c0,0,0,0.1,0,0.1c3,10.5,2.5,19.9-1.7,27.9
	c-3.6,7-8.1,12.9-13.1,17.6c-3.4,3.2-7.1,5-11.2,5.3c-2.8,0.2-6.4,0.3-9.3-1.6c-3.2-2-5.3-5.5-6.3-10.2l-0.8-3.6
	c-1.3-6.1-4.4-9.6-10.1-11.3c-7.2-2.2-16.8-2.4-28.4-0.8c-12.3,1.7-26.4,5.2-42.1,10.2c-15.9,5.1-32.7,11.1-49.7,17.7
	c-16.9,6.6-34.4,13.4-52.1,20.5c-17.4,6.9-34.3,13.1-50,18.4c0.3,1.7-0.1,3.4-1,5c-5.9,9.9-11.9,21.1-17.9,33.3
	c-5.9,12-11.1,24.7-15.4,37.6c-4.3,12.8-7.4,26-9.3,39.1c-1.8,12.5-1.7,24.6,0.4,36.1c0.2,0.6,0.4,1,0.6,1.4c0,0,0.1,0,0.1,0
	c0.1,0,0.1,0,0.2,0c0.2,0,1-0.2,2.7-1.4c2.4-2.2,5.4-5.5,8.9-9.7c3.7-4.4,7.4-9.3,11-14.6c3.6-5.4,7-10.9,10.1-16.4
	c2.9-5.3,5.1-10.1,6.5-14.4c0.2-0.6,0.5-1.2,0.8-1.8l3.2-5c0.2-0.3,0.4-0.6,0.6-0.8c1.5-1.8,3.3-3.3,5.3-4.4
	c0.9-0.6,2.1-1.1,3.6-1.4c1-2.9,2-5.7,3-8.3c4.7-12,10.2-23.4,16.3-34.1c2-3.5,4.3-7,6.8-10.5c2.6-3.7,5.5-7.1,8.6-9.9
	c3.3-3.1,7.1-5.7,11.3-7.5c4.5-2,9.5-2.9,14.7-2.6c11.6,0.4,18.8,7.2,19.3,18c0.4,8.5-2.6,17.7-8.8,27.5
	c-8.9,15.6-15.9,29.8-20.9,42.3c0,0.1,0,0.1-0.1,0.2c-2.2,5.2-4.1,10.4-5.5,15.3c-1.4,4.8-2.3,9.1-2.7,12.7c-0.3,2.5-0.1,4.5,0.4,6
	c0.2,0,0.5,0,0.8,0c1.2,0.1,4.7,0.4,10.1-5.7c4.8-5.4,9.3-12,13.2-19.6c4.1-7.9,7.8-16,11-24.1c3.4-8.5,6.3-15.3,8.8-20.4
	c2.2-4.3,4.1-8.1,5.8-11.6c1.7-3.4,3.3-6.4,4.6-9.1c0-0.1,0.1-0.1,0.1-0.2c1.7-3.1,3.2-5.8,4.6-8.1c1.9-3.3,4.1-6.8,6.4-10.2
	c2.5-3.8,5.4-7.2,8.5-10.1c3.3-3.1,7.1-5.7,11.3-7.5c4.5-2,9.5-2.9,14.7-2.6c11.5,0.4,18.6,7,19.2,17.6c0.2-0.4,0.4-0.8,0.6-1.2
	c1.1-2.1,2.6-4.5,4.4-7.2c2.1-3.1,4.6-5.8,7.4-8.2c3.1-2.6,6.8-4.5,11-5.6c4.2-1.2,8.9-1.4,14-0.7c0,0,0.1,0,0.1,0
	c5.2,0.8,12.4,3.9,17.3,13.8c3.5,7,4.7,15.7,3.7,26.7c0,0,0,0,0,0c-1,10.1-4.3,21.9-9.8,35c-5.5,13-14,26.9-25.3,41.3
	c0,0-0.1,0.1-0.1,0.1c-6.9,8.5-14.5,16.9-22.7,25c-7,7-15.6,14.2-25.4,21.3c-10,7.2-20.6,13.2-31.6,17.7c-0.3,0.1-0.6,0.2-0.9,0.3
	c-4.8,1.3-9.1,1.4-12.7,0.1c-2.8-0.9-4.7-1.7-6.1-2.5c-0.1,0-0.1-0.1-0.2-0.1c-5.8-3.4-10.1-7.8-12.8-13.1c-0.1-0.2-0.2-0.3-0.2-0.5
	c-4,4.6-8.2,8.7-12.8,12.3c-5.8,4.6-12,7.7-18.5,9.2c0.6,2.7,1.1,5.2,1.5,7.2c0.5,1.3,0.7,2.7,0.6,4.1c0,0.1,0,0.1,0,0.2
	c0,0.9,0,2.1-0.4,3.3c0.5,1.5,1.1,2.9,1.6,4.4l1.2,3.2c3.3,8.9,6.6,18.1,9.2,27.5c7.1,26.5,5.5,48.7-4.9,66.1c-1.9,3.1-4,6-6.5,8.7
	c0.6,4.9,0.7,9.8,0.1,14.6c-2,17.4-11,31.7-19.6,45.6c-3,4.8-5.8,9.2-8.3,13.8c-4.5,8.3-7.4,15.9-8.8,23.3
	c-1.4,7.7-1.4,15.4-0.1,22.8c2.5,14.3,10.8,26.2,22.2,31.9c11.4,5.7,24.7,6,34.7,0.7c2.7-1.4,4.9-3,6.6-4.7c4-4.1,10.5-4.1,14.6,0
	c4,3.9,4.1,10.2,0.2,14.2c-6.4,6.5-13.7,10.9-21.9,13.1C215.7,695.7,210.4,696.3,205.2,696.3z M152.7,489.1c-0.1,0-0.3,0-0.4,0
	c-4.1,0.2-6.6,4.5-6.6,8.6c0,4.6,2.3,9.2,6.3,12.8c4.1,3.6,9.1,5.2,14.6,4.7l0,0c3.8-0.3,7.7-1.7,11.2-3.8
	c-2.3-5.5-5.6-10.5-9.9-14.5C164.9,494,158.8,489.1,152.7,489.1z M550.9,694.9c-5.3,0-10.5-0.7-15.4-2c-8.2-2.2-15.5-6.7-21.9-13.1
	c-3.9-4-3.9-10.2,0.2-14.2c4.2-4.1,10.6-4.1,14.6,0c1.7,1.7,3.9,3.3,6.6,4.7c10,5.3,23.2,5,34.7-0.7c11.3-5.7,19.6-17.6,22.2-31.9
	c1.3-7.4,1.3-15.1-0.1-22.8c-1.4-7.4-4.2-15.1-8.8-23.3c-2.5-4.6-5.3-9.1-8.3-13.8c-8.7-13.8-17.6-28.1-19.6-45.6
	c-0.6-4.8-0.5-9.7,0.1-14.6c-2.5-2.7-4.6-5.6-6.5-8.7c-10.4-17.4-12-39.6-4.9-66.1c2.5-9.4,5.9-18.6,9.2-27.5l1.2-3.2
	c0.8-2.1,1.5-4.1,2.3-6.1c0-0.1-0.1-0.1-0.1-0.2c-1.8-2.6-2-4.1,0.5-15.6c-6.5-1.5-11.9-4.4-16.2-8.6c-4.1-3.8-7.2-9.1-9-15.8
	c-1.9-6.9-1.2-15.4,2-25.9c2.4-7.8,6.3-16.4,11.4-25.6c5-9,10.2-17.5,15.4-25.2c4.9-7.2,10.2-14.5,15.7-21.6
	c-7.5,5.2-15.9,12.3-25,21.2c-9.9,9.6-19.9,21-29.8,33.8c-8.8,11.4-16.4,23.5-22.5,36.1c0.3,0.3,0.6,0.6,0.8,0.9c0,0,0,0,0,0
	c0,0,0.2,0.2,0.5,0.5c2.8,2.6,3.7,6.3,2.4,9.9c-1,3.8-4,8.5-12.3,10.8c-0.1,0-0.1,0-0.2,0c-10.6,2.6-19.7,2.2-27.2-1.2
	c-7.9-3.4-13-9.9-14.7-18.9c-0.8-4.1-1.1-8.4-1-12.9c-5.5,5.4-11.4,10.5-17.7,15.2c-7.3,5.5-14.9,10-22.7,13.6
	c-8.3,3.7-16.7,5.6-24.9,5.5c-0.4,0-0.7,0-1.1-0.1c-5.3-0.8-10.2-2.7-14.4-5.4c-4-2.5-7.5-6.1-10.3-10.6c-3.1-4.9-4.5-11.3-4.4-19.7
	c0.1-3.7,0.6-7.8,1.7-12.7c2.4-10.4,6.5-21.5,12.2-32.9c5.5-11.1,11.1-21.3,16.5-30.3c6.4-10.6,13.6-21.3,21.2-31.8
	c0,0,0.1-0.1,0.1-0.1c3.6-4.8,7.3-9.2,10.9-13c0.1-0.1,0.1-0.2,0.2-0.2c3.4-3.3,7.2-6.4,11.3-9.3c5.1-3.5,10.6-5.2,16.5-5.1
	c7.6,0.1,13.3,2.5,17.1,7.1c3.4,4.2,5.1,9.1,5,14.6c-0.1,4.7-1.3,9.8-3.6,15c-2.1,4.8-5.1,9.8-9,14.8c0,0.1-0.1,0.1-0.1,0.2
	c-2.1,2.6-5.6,7.4-10.4,14.1c-4.8,6.8-9.8,14.1-14.8,21.8c-4.9,7.6-9.4,15.2-13.2,22.5c-2.6,4.9-3.9,8.2-4.5,10.5
	c1.3-0.6,3-1.5,5.3-3c5.2-3.3,10.8-7.4,16.6-12.2c5.8-4.8,11.5-10.1,16.7-15.6c5.1-5.4,9-10.3,11.5-14.7c0.1-0.2,0.2-0.3,0.3-0.5
	c0.7-1,1.5-2.2,2.6-3.6c0.2-0.3,0.5-0.6,0.7-0.8c0.9-0.9,2.1-1.8,3.5-2.8c1.6-1.1,3.3-1.8,5.2-2.2c0.6-1.1,1.2-2.1,1.8-3.1
	c4.1-6.7,7.9-12.7,11.2-17.9c0.1-0.1,0.1-0.2,0.2-0.2c4-5.5,7.8-10.8,11.4-15.7c0.1-0.2,0.2-0.3,0.4-0.5c2.6-3,5.3-6,8.2-8.9
	c3.2-3.3,6.8-6.1,10.6-8.5c3.9-2.4,8-4.1,12.3-5.2c4.7-1.2,9.8-1.1,15.2,0.2c11.4,2.5,17.2,10.5,15.7,21.3c0,0.3-0.1,0.6-0.1,0.8
	c3.7-2.6,7.6-5.1,11.5-7.4c5.7-3.2,11.5-5.7,17.4-7.2c6.1-1.6,12.2-2.1,18.1-1.5c6.4,0.6,12.5,3,18.2,7c8.1,5.8,12.4,13.7,12.3,23
	c-0.1,7.7-1.6,15.6-4.7,23.5c-2.9,7.6-6.7,14.7-11.2,21.1c-4.3,6.2-7.4,10.6-9.6,13.5c-4.9,6.7-9.4,13.1-13.4,18.9
	c-2.9,4.4-5.4,8.6-7.3,12.6c4.3-2.2,9.2-5.5,14.5-9.7c1.4-1.1,2.8-2.3,4.4-3.7c1.7-3.5,3.9-7.1,6.5-10.6c3.2-4.8,7.2-8.9,11.9-12.3
	c2-1.6,4.3-3.1,6.8-4.5c0.2-0.3,0.5-0.6,0.7-0.9c1.4-1.9,3.1-3.6,4.9-5.1c0.3-0.2,0.6-0.4,0.9-0.6c2.1-1.3,4.4-2.1,6.8-2.6
	c2.4-0.5,6.2-0.5,10.5,2.2c0.1,0.1,0.2,0.1,0.3,0.2c0.1,0.1,0.3,0.2,0.4,0.3c9.3-9.5,18-19.1,25.9-28.5
	c9.1-10.8,15.7-18.5,20.1-23.7c2.8-4.8,5.9-9,9.5-12.5c3.3-3.3,7-6.2,11-8.5c5.1-2.9,10.7-3.7,16.8-2.5c2.6,0.5,4.6,1.2,6.2,2.1
	c2.5,1.5,4.7,3.3,6.5,5.5c1.9,2.3,3.3,4.9,4.3,7.8c0,0,0,0,0,0c1.1,3.3,1.3,6.9,0.5,10.6c-0.6,3.1-2.3,6.6-5.2,11.2
	c0,0,0,0.1-0.1,0.1c-1.7,2.6-3.5,5.6-5.4,9.1c-1.4,2.8-2.9,6.4-4.3,10.5c-1.5,4.2-2.8,9.1-3.9,14.6c-1,4.8-1.7,9.9-2,15.1
	c-0.4,6-1.4,12.8-3,20.4c-2,9.4-4.8,19.3-8.6,29.3c-3.9,10.4-9,19.8-15.3,28c-6.6,8.6-14.8,15.1-24.3,19.6
	c-9.9,4.6-21.5,5.6-34.3,2.9c-7-1.5-14.4-4.2-21.8-8.2c-3.6-1.9-7.2-4.2-10.5-7.1c-2.8-2.4-5.6-5.5-8.4-9.1c-1.6-2-3-4.2-4.2-6.6
	c-0.7,0.5-1.4,1.1-2.2,1.6c-3.9,2.8-7.9,5.3-12,7.4c1.6,1.5,2.8,2.9,3.5,4.7c0.6,1.5,0.7,3.1,0.3,4.6c1.9,2.3,2.4,4.6,2.5,5.9
	c0.1,2.2-0.4,7.9-8.3,11.6c-3.5,1.6-8.1,2.7-12.8,3c-0.9,0.1-1.9,0.1-2.8,0.1c-0.9,2.5-1.8,5.1-2.6,7.6c-1.3,3.8-2.7,7.7-4,11.5
	c-3,8.7-5.9,18-7.3,27.6c-1.2,8-2,21.2,2.8,32.9c3.2-5.2,7.2-9.9,11.7-13.9c6.2-5.5,16.2-12,28.1-12c0,0,0.1,0,0.1,0
	c12.8,0,23.7,9.4,26.5,22.9c2,9.6-0.3,19.6-6.7,28.2c-5.8,7.9-14.5,13.6-23.6,15.6c-8.1,1.8-16.5,1.1-24.5-1.9
	c0.1,0.6,0.2,1.3,0.4,1.9c1.9,9,6.5,17.4,11.1,25.2c1.7,2.8,3.4,5.6,5.1,8.3c3.8,6,7.7,12.2,11,18.8c4.5,8.8,7.5,17.9,9,26.8
	c3.2,19.5-0.3,38.5-9.7,53.6c-9.2,14.7-24.4,24.8-41.9,27.6C557.4,694.7,554.1,694.9,550.9,694.9z M578.1,510.1
	c3.6,2.1,7.5,3.4,11.2,3.8c5.5,0.5,10.6-1.1,14.6-4.7c4-3.5,6.3-8.2,6.3-12.8c0-4.1-2.4-8.5-6.6-8.6c-6.2-0.2-12.6,4.8-15.8,7.9
	C583.8,499.6,580.4,504.5,578.1,510.1z M455.8,647.2c-0.8,0-1.6,0-2.4-0.1c-3.5-0.4-6.9-1.7-10-3.9c-5.5-3.9-8.2-11.3-8.3-23.3
	c-0.9,0.1-1.6,0.4-2,0.6c-0.1,0.4-0.1,0.9-0.2,1.7c0,0.4-0.1,1.3-0.1,3.2c0,1.9,0,3.2-0.1,4.2c-0.2,2.2-0.6,8.9-5.9,11.9
	c-2.4,1.4-4.7,2-7,1.8c-1.6-0.1-3.1-0.6-4.4-1.3c-2.1-1.2-3.7-2.7-4.9-4.5c-1.4,1.2-3,2.3-4.8,3.2c-3.6,1.8-7.7,2.5-12,2.1
	c-4.6-0.4-8.2-1.4-11-3.3c-0.8-0.5-1.5-1-2.1-1.6c-2.8,3.8-7,4.3-8.2,4.3c-1.8,0-3.6-0.4-5.4-1.2c-0.9-0.4-1.8-1-2.8-1.9
	c-0.4,0.3-0.8,0.5-1.2,0.8c-2.4,1.3-4.4,1.9-6.3,2c-1.9,0.1-3.9-0.4-6.1-1.4c-0.3-0.1-0.7-0.3-1-0.5c-1.5,1.6-3.5,2.8-5.9,3.5
	c-1,0.3-1.9,0.4-2.7,0.4c-2.3,0.1-5.7-0.6-9-4c-3-3.2-4.3-8.1-4.2-17.2c0-8-0.2-10.4-0.3-11c-0.3-1.8-0.5-4.5-0.7-8.3
	c-0.3-4.3,0.3-8.2,1.7-11.5c0.5-1.2,1.2-2.4,1.9-3.4c-0.2,0-0.5,0.1-0.7,0.1c-1.1,0.1-2.2,0-3.2-0.1c-3.6-0.6-6.3-2.7-7.8-5.8
	c0-0.1-0.1-0.1-0.1-0.2c-0.5-1.2-0.9-2.6-1.2-5.2c-0.1-0.9-0.2-2.1-0.4-3.7c-5.8,0-10.4-3-12.5-8.2c0-0.1-0.1-0.2-0.1-0.3
	c-0.9,0.3-1.5,0.7-2,1c0,0.4,0,0.9,0.1,1.7c0.1,0.5,0.2,1.4,0.5,3.2c0.3,1.8,0.6,3.1,0.7,4.1c0.3,2.2,1.1,8.8-3.4,12.8
	c-2,1.8-4.2,2.8-6.5,3.1c-1.6,0.2-3.1,0-4.6-0.5c-1.6-0.6-3.1-1.3-4.3-2.3c-1.6,1.6-3.6,2.6-6,3.1c-0.7,0.1-1.5,0.2-2.3,0.2
	c-0.8,0-1.7-0.1-2.6-0.3c-0.8,0.6-1.7,1.2-2.7,1.7c-2.8,1.5-5.8,2.5-8.8,2.9c-3.3,0.4-6.3,0-9-1.2c-6.2-2.8-10.1-7.9-11.3-14.5
	c-0.2-1-0.3-2-0.3-3c-0.6,0.4-1.3,0.8-2,1.1c-0.8,0.4-2,0.9-5.9,2.2c-1.3,0.4-2.7,0.9-4.1,1.2c0.6,1.9,0.9,2.5,0.9,2.6
	c0.8,1.5,1.4,3.1,1.9,4.5c0.7,2.2,1,4,0.9,5.7c0,3.1-1.3,6.1-3.8,8.3c-2.3,2.1-5,3.2-7.8,3.3c-3.3,0.1-9.3-1.2-12.6-11
	c-0.7-2-1.2-3.5-1.5-4.6c-1.1-3.2-2.1-6.4-2.9-9.5c0,0,0-0.1,0-0.1l-2.2-9.2c-0.7-2.7-1-5.7-0.9-8.7c0.1-6.8,3.9-12.5,10.6-16.1
	c2.3-1.2,5.7-2.4,10.7-3.6c5.4-1.3,10.2-1.3,14.3,0c3.3,1.1,5.9,2.5,7.8,4.4c0.5,0.4,0.9,0.9,1.3,1.4c1.1-2.1,2.6-3.5,3.9-4.3
	c0,0,0.1-0.1,0.1-0.1c0,0,0.1-0.1,0.1-0.1c0.7-0.5,1.3-0.9,1.8-1.2c1.7-1.1,3.7-1.8,6.1-2.2l3-0.5c2.5-0.4,5.2-0.2,8.2,0.8
	c1.8,0.6,3.3,1.3,4.6,2.1c0.2-0.4,0.5-0.8,0.7-1.2c2.5-3.5,5.2-4.7,7.4-5.1c0.8-0.2,1.5-0.3,2.2-0.4c5.3-0.7,9.7,1.4,12,5.5
	c1.4-0.4,2.8-0.7,4.3-0.8c0,0,0,0,0,0c6.9-0.4,10.9,3.1,12.6,7.1c0.1,0,0.2,0,0.3-0.1c-0.1-1.5-0.3-2.7-0.3-3.6
	c-0.4-3.8-0.2-6.5,0.6-8.7c1.7-4.7,6-7.5,11.5-7.4c5.5,0.1,12,3.8,12.2,14c0,1.5,0.1,2.8,0.1,3.9c0,0,0.1,0,0.1,0c0.1,0,0.2,0,0.3,0
	c-0.1-1.1-0.2-2-0.2-2.5c0-0.1,0-0.1,0-0.2c-0.3-3.1,0.7-6.2,2.8-8.9c1.9-2.6,4.8-4.1,8.1-4.2c1.1,0,2.3,0.1,3.6,0.5
	c2.2,0.6,4.1,1.7,5.5,3.1c0.1-0.2,0.2-0.3,0.3-0.5c0.7-1,1.6-1.8,2.7-2.4c2.1-1.1,4.2-1.6,6.2-1.7c1.2,0,2.3,0.1,3.4,0.4
	c2.1,0.6,3.6,1.2,4.8,1.9c0.4,0.2,0.8,0.5,1.1,0.8c1.2,1.1,2.8,3.2,3.2,6.5l0.7,5.9c0,0.1,0,0.2,0,0.2c0.2,1.7,0.2,4.9-0.7,14.6
	c-0.2,1.5-0.3,2.7-0.3,3.6c0,0,0,0.1,0,0.1c-0.3,3.5-0.6,5.9-0.8,7.5c-0.8,4.3-2.2,7.5-4.2,9.9c-0.8,0.9-1.6,1.7-2.6,2.3
	c2.1,1.1,4.4,3.1,6.2,6.5c0.6,1,1.1,2.2,1.5,3.5c4-3.8,9.9-5.4,17.6-4.9c3.4,0.2,5.7,0.7,7.5,1.3l0,0c1.6,0.6,3.4,1.5,5.2,3.1
	c0.4-0.5,0.7-0.9,1.2-1.3c2.6-2.5,5.4-3.7,8.3-3.6c0.8,0,1.5,0,2.2,0c5.3,0.4,9.2,3.3,10.8,7.7c1.5-0.2,2.9-0.1,4.3,0.1c0,0,0,0,0,0
	c1.9,0.3,3.5,0.8,4.8,1.5c1.4-1.6,3.1-2.9,5-3.9c3.7-2.3,8-3.2,12.8-2.7c2.2,0.3,4.5,0.8,6.9,1.6c8.8,3.1,13.4,9.8,12.5,18.5
	c-0.8,8.3-4.9,13-8.7,15.7c1.4,1.8,2.3,4.4,2.2,7.7c-0.1,2.9-1.5,10.2-12.2,12.3C458.8,647.1,457.3,647.2,455.8,647.2z M464.9,621.3
	L464.9,621.3L464.9,621.3z M393.9,621.1L393.9,621.1L393.9,621.1z M432.6,620.9C432.6,620.9,432.6,620.9,432.6,620.9
	C432.6,620.9,432.6,620.9,432.6,620.9z M454.8,611.9c0.4,0.8,1.7,2.3,3.7,2.5c0.6,0.1,1,0,1.2,0c0.6-0.3,1.8-1.5,1.9-3.1
	c0.1-1-0.3-2.1-0.9-2.8c-0.5-0.5-1.2-0.9-1.9-1c-0.2,0-1,0-1.8,0.6c-1.2,0.9-2,2.2-2.2,3.6C454.8,611.7,454.8,611.8,454.8,611.9z
	 M461.6,611.3C461.6,611.3,461.6,611.3,461.6,611.3C461.6,611.3,461.6,611.3,461.6,611.3z M454.1,610.7L454.1,610.7L454.1,610.7z
	 M437.4,604.7C437.4,604.7,437.4,604.7,437.4,604.7C437.4,604.7,437.4,604.7,437.4,604.7z M218.7,594.3L218.7,594.3L218.7,594.3z
	 M341.7,582.8c0.8,0,1.7,0.1,2.7,0.2c4,0.5,7.4,2.4,10,5.3c0.5-0.7,1-1.4,1.5-1.9c-8.6-1.4-12.1-5.9-13.6-9.5
	c-0.9-2.1-1.2-4.4-0.9-6.8c0-0.1,0-0.1,0-0.2c-0.5,0.1-1.1,0.2-1.7,0.3c0.1,3.1,0.2,4.7,0.3,5.4c0.2,2.8-0.4,5.4-1.7,7.6
	c1-0.2,1.9-0.3,3-0.4C341.4,582.8,341.6,582.8,341.7,582.8z M259.7,581c0.1,0,0.4,0,0.9,0c1-0.1,2-0.4,2.9-0.9l-0.1-0.1l0.1,0.1
	c0.1,0,0.2-0.1,0.3-0.1c0.5-0.7,0.8-1.6,0.7-2.6c-0.1-0.8-1-2.6-3-3.3c-0.3-0.1-0.6-0.2-0.9-0.2c-0.4,0.1-0.7,0.1-0.9,0.2
	c-0.8,0.2-1.4,0.5-1.9,1c-0.5,0.7-0.9,1.7-0.9,2.7c0,0.1,0,0.1,0,0.2l0,0l0,0C257.4,579.4,258.1,580.3,259.7,581z M259.7,581.1
	C259.7,581.1,259.7,581.1,259.7,581.1C259.7,581.1,259.7,581.1,259.7,581.1z M259.7,581C259.7,581,259.7,581,259.7,581
	C259.7,581,259.7,581,259.7,581z M264.5,577.3C264.5,577.3,264.5,577.3,264.5,577.3C264.5,577.3,264.5,577.3,264.5,577.3z
	 M349.8,574.6C349.8,574.6,349.9,574.6,349.8,574.6C349.9,574.6,349.8,574.6,349.8,574.6z M223.9,566C223.9,566,223.9,566,223.9,566
	C223.9,566,223.9,566,223.9,566z M224.9,563.3l-1.7,0.4c0.2,0.9,0.6,1.4,0.8,1.6c0.1,0.1,0.2,0.2,0.4,0.2c0.4-0.5,0.7-1.3,0.6-1.8
	C225,563.6,224.9,563.5,224.9,563.3z M302.2,565.4L302.2,565.4L302.2,565.4z M225,563.8C225,563.8,225,563.8,225,563.8
	C225,563.8,225,563.8,225,563.8z M223.2,561.4c-0.2,0.6-0.3,1.4-0.1,2.3l1.7-0.4C224.5,562.5,223.8,561.9,223.2,561.4z M316.5,563.3
	C316.5,563.3,316.5,563.3,316.5,563.3L316.5,563.3C316.5,563.3,316.5,563.3,316.5,563.3z M242.7,563.2L242.7,563.2L242.7,563.2z
	 M222.6,561.9C222.6,561.9,222.6,561.9,222.6,561.9C222.6,561.9,222.6,561.9,222.6,561.9z M222.6,561.9
	C222.6,561.9,222.6,561.9,222.6,561.9C222.6,561.9,222.6,561.9,222.6,561.9z M338.2,555.3C338.2,555.3,338.2,555.3,338.2,555.3
	C338.2,555.3,338.2,555.3,338.2,555.3z M256.8,552.6L256.8,552.6C256.8,552.6,256.8,552.6,256.8,552.6
	C256.8,552.6,256.8,552.6,256.8,552.6z M355.8,550C355.8,550,355.8,550,355.8,550L355.8,550z M303.3,549.8
	C303.2,549.8,303.2,549.8,303.3,549.8C303.2,549.8,303.2,549.8,303.3,549.8z M259.9,548.5L259.9,548.5L259.9,548.5z M331.5,547.1
	C331.5,547.1,331.5,547.1,331.5,547.1C331.5,547.1,331.5,547.1,331.5,547.1L331.5,547.1z M250.2,545C250.1,545,250.1,545,250.2,545
	C250.1,545,250.1,545,250.2,545z M250.9,544.5C250.9,544.5,250.9,544.5,250.9,544.5C250.9,544.5,250.9,544.5,250.9,544.5z
	 M371.1,542.1L371.1,542.1L371.1,542.1z M322.9,542L322.9,542z M346,541.7C346,541.7,346,541.8,346,541.7
	C346,541.8,346,541.7,346,541.7z M328.6,540.9L328.6,540.9L328.6,540.9z M290.4,646.3c-1.1,0-2.1-0.1-3.1-0.4l-1.2-0.2
	c-0.3-0.1-0.5-0.1-0.8-0.2c-4.2-1.3-7.1-3.6-8.8-6.7c-1-1.8-1.5-3.4-1.7-4.9c-0.2-1.9-0.3-2.9-0.1-4.1c0.2-1.4,0.8-2.5,1.6-4.1
	c0.5-1,1.2-2,1.8-3.1c0.2-0.3,0.4-0.6,0.6-0.8c0.4-0.5,0.8-1,1.3-1.6c-0.3-0.4-0.6-0.9-0.9-1.3c-2.3-3.5-3.6-6.6-4-9.7
	c-0.4-3.7,0.7-7.2,3.1-10.2c1.8-2.2,4.2-3.8,7-4.9c2.3-0.9,4.9-1.5,7.8-1.8c8.4-1,14.7,1,18.8,5.8c1.8,2.1,2.8,4.6,3.2,7.5
	c0.1,0.8,0.1,1.6,0,2.3c0.6,0.2,1.3,0.5,1.9,0.9c0.8,0.4,1.4,1,2,1.6c0,0,0.1,0.1,0.1,0.1c0.8,0.7,2.8,2.5,3.1,5.6
	c0.4,3.6-1.2,6.7-2.5,8.8c0,0-0.1,0.1-0.1,0.1c1.5,1.6,2.8,3.8,3.1,6.4c0.3,2.3-0.3,4.7-1.6,6.8c0,0,0,0.1-0.1,0.1
	c-2.4,3.6-5.3,4.7-7.4,4.9c-2.5,0.3-5-0.2-7.6-1.3c-0.1,0-0.1-0.1-0.2-0.1c-0.3-0.1-0.7-0.4-1.9-1.1c-0.7,0.6-1.5,1.3-2.2,2
	c-2.1,1.8-4.8,2.9-8.5,3.3C292.2,646.2,291.3,646.3,290.4,646.3z M319.6,611.2C319.6,611.2,319.6,611.2,319.6,611.2
	C319.6,611.2,319.6,611.2,319.6,611.2z M531.3,601.7c-0.9,0-1.7-0.1-2.5-0.3c-1.6-0.4-2.9-1.1-4.1-2c-1.8-1.5-3.2-3.3-4.1-5.2
	c-1.6,1-3.3,1.7-5.2,2.3c-3.9,1.1-8,1.2-12.2,0.2c-4.4-1.1-7.8-2.7-10.4-5c-1-0.9-1.8-1.8-2.5-2.8c-1.3,0.9-2.9,1.8-5,2.4
	c-0.4,0.1-0.9,0.2-1.3,0.3c-3.6,0.4-6.1,0.5-7.9,0.3c-3.7-0.4-7.7-1.8-11.7-4.1c-1.6-0.9-3.3-2.2-4.7-4c-1.8,1.9-4.5,3.6-8.7,4.5
	c-2.3,0.5-4.6,0.7-6.8,0.5c-3.5-0.3-6.9-1.6-10.1-3.7c-2.2-1.5-4-3.5-5.4-6.2c-3.4,3.5-7.9,6-13.4,7.3c-1.9,0.5-4,0.7-6.2,0.6
	c-5.3-0.1-9.5-0.9-13-2.6c-6.2-3-9.3-11.2-10.4-27.4c-0.4-5.3-0.4-9.2-0.2-11.8c0.4-5.1,1.2-8.4,2.5-10.8c1.5-2.8,4.8-6.5,11.7-8
	c3.1-0.6,6.1-0.9,8.8-0.8c1.5,0.1,3,0.2,4.5,0.6c3.4,0.7,6.6,1.9,9.3,3.4c3.1,1.7,5.6,3.8,7.4,6.3c0.7,0.9,1.4,2,2.1,3.4
	c1.4-1.5,2.9-2.7,4.4-3.5c3.6-2.4,7.9-3.4,12.8-3c2.2,0.2,4.6,0.7,7,1.5c3.7,1.2,6.8,3.1,8.9,5.5c4-2.9,9.5-3.8,16.4-2.6
	c9.3,1.5,13.8,5.4,16,9.2c4.6-3.2,10.7-3.9,18.3-2c3.3,0.8,5.5,1.6,7.2,2.5l0,0c1.6,0.9,3.2,2.1,4.7,4c0.5-0.4,1-0.8,1.5-1.2
	c3-2,5.9-2.7,8.7-2.1c0.8,0.1,1.5,0.2,2.2,0.4c5.1,1.3,8.5,4.8,9.2,9.4c1.5,0.1,2.9,0.4,4.3,0.8l0,0c8,2.6,9.9,8.8,9.1,13.8
	c-0.7,4.3-2.8,6.6-4.5,7.8c-1.6,1.1-4.2,2.3-8,1.7c-2.1-0.3-3.6-0.2-4.4,0c-0.1,0.4-0.3,0.9-0.5,1.6c-0.1,0.4-0.3,1.4-0.6,3.2
	c-0.3,1.8-0.6,3.1-0.8,4.1c-0.5,2.1-2.1,8.6-7.8,10.8C534.3,601.4,532.8,601.7,531.3,601.7z M534.5,588.9L534.5,588.9L534.5,588.9z
	 M545,581.5C545,581.5,545,581.5,545,581.5C545,581.5,545,581.5,545,581.5z M549.2,572.3L549.2,572.3L549.2,572.3z M515.2,569
	L515.2,569L515.2,569z M481.8,566.4c0.8,0,1.5,0,2.2,0.1c1,0.1,2,0.4,2.9,0.7c0.1-1,0.2-1.9,0.3-2.7c-1.3-0.2-2.8-0.7-4.4-1.5
	c-1.8-0.9-2.9-1.1-3.5-1.2c-0.2,0-0.4,0-0.5,0c-0.1,0.1-0.4,0.4-0.6,1c-0.2,0.3-0.3,0.7-0.4,1.2c-0.1,0.5-0.1,1.4,0,2.7
	c0.2,0,0.4,0,0.6-0.1C479.7,566.5,480.8,566.4,481.8,566.4z M476.6,566.7L476.6,566.7L476.6,566.7L476.6,566.7z M552.4,566.3
	C552.4,566.4,552.5,566.4,552.4,566.3C552.5,566.4,552.4,566.4,552.4,566.3z M455,562.8L455,562.8L455,562.8z M409.2,553.1
	c-0.2,1.9-0.3,3.8-0.2,5.8c0.1,1.2,0.1,2.1,0.2,2.8c0.1,0,0.2,0,0.3-0.1c0.2-0.1,0.9-0.3,1.2-0.6c0,0,0,0,0,0s0.5-0.7,0.7-3
	c0-0.4,0.2-1.5-1.1-3.5C409.9,553.9,409.6,553.5,409.2,553.1z M444.6,553.6c0.4,0.8,1.8,2.2,3.8,2.4c0.6,0.1,1,0,1.2-0.1
	c0.6-0.3,1.7-1.5,1.8-3.2c0.1-1-0.3-2.1-1-2.8c-0.5-0.5-1.2-0.9-1.9-1c-0.2,0-1,0-1.8,0.6c-1.2,0.9-2,2.3-2.1,3.6
	C444.6,553.4,444.6,553.5,444.6,553.6z M444.6,553.8L444.6,553.8L444.6,553.8z M484.3,553.7C484.3,553.7,484.3,553.7,484.3,553.7
	C484.3,553.7,484.3,553.7,484.3,553.7z M484.3,553.7C484.3,553.7,484.3,553.7,484.3,553.7C484.3,553.7,484.3,553.7,484.3,553.7
	L484.3,553.7z M451.5,552.8C451.5,552.8,451.5,552.8,451.5,552.8C451.5,552.8,451.5,552.8,451.5,552.8z M451.5,552.8
	C451.5,552.8,451.5,552.8,451.5,552.8C451.5,552.8,451.5,552.8,451.5,552.8z M444,552.4L444,552.4L444,552.4z M670,332
	c-0.6,0-2.3,0.4-5.6,2.9c-3.2,2.5-5.2,6-6.2,10.6c-0.3,1.6-0.1,3.1,0.8,4.7c0.6,1.1,2.8,2.1,5.8,2.8c1.7,0.3,3,0.1,4.2-0.8
	c2-1.4,3.8-3.5,5.3-6.3c1.5-2.7,2.8-5.7,3.9-9C674,336.1,671.5,334,670,332z M472.6,223.3c-0.5,0-1-0.1-1.6-0.2
	c-2.9-0.6-5.2-3-5.8-5.9c-1.1-5.7-2.3-11.3-3.4-16.9c-4.7-1.8-9.4-3.5-14.2-5.1c-2.6-0.9-4.5-3.2-5-5.9c-0.4-2.7,0.7-5.5,2.9-7.2
	c4.6-3.5,9.2-7,13.8-10.3c0.2-6.1,0.5-12.1,0.7-18c0.1-2.9,1.8-5.4,4.4-6.6c2.6-1.2,5.7-0.8,7.9,1.1c4.1,3.4,8.3,7,12.3,10.6
	c5.1-1.6,10.3-3.2,15.5-4.8c2.8-0.8,5.7,0,7.7,2.1c1.9,2.1,2.5,5.2,1.4,7.8c-2.2,5.6-4.5,11.3-6.8,17.1c2.9,5.2,5.7,10.5,8.4,15.8
	c1.3,2.5,1.1,5.4-0.5,7.7c-1.6,2.3-4.3,3.5-7,3.2c-4.9-0.6-9.8-1-14.8-1.5c-3.3,4.6-6.6,9.2-9.8,13.8
	C477.3,222.2,475,223.3,472.6,223.3z"/>
<path id="hilo1" class="st1" d="M183.4,379.8c4.9,10.5,9.2,21.4,13.1,32.3c3.6,9.9,7.4,19.9,10.2,30.1c5.3,19.7,6.8,42.1-4.1,60.3
	c-8.7,14.5-26.2,25.3-43.4,21.4c-15.1-3.4-28-19-24.6-34.9c2-9.3,9.4-17,19.3-16.9c8.7,0,16.8,4.6,23.2,10.2
	c13.1,11.5,20.1,29.3,18.1,46.6c-2.5,21.4-17,38.4-27.1,56.6c-4.4,8.1-7.9,16.5-9.6,25.6c-1.5,8.4-1.6,17-0.1,25.4
	c2.8,15.6,11.8,30.1,26.2,37.3c12.7,6.3,28.7,7.4,41.5,0.6c3-1.6,6-3.6,8.4-6.1c2.4-2.5,6.6,1.1,4.1,3.6
	c-5.2,5.3-11.4,9.2-18.5,11.2c-7.2,2-14.7,2.3-22,1.1c-15.1-2.4-28.6-11.1-36.7-24.1c-8.9-14.3-11.3-32-8.6-48.5
	c1.4-8.6,4.3-16.9,8.3-24.6c4.7-9.2,10.6-17.8,15.9-26.7c5.2-8.6,10-17.6,12-27.5c1.7-8.2,1.3-16.7-1.3-24.7
	c-2.5-7.7-7-14.9-12.9-20.5c-5.6-5.3-13.2-10.3-21.2-9.9c-8.4,0.3-13.8,8.1-13.8,16.1c0,7.1,3.6,13.7,8.9,18.4
	c5.6,5,12.8,7.3,20.3,6.6c7.7-0.7,15-4.3,20.7-9.4c14.6-13.1,17.1-34.3,14.3-52.8c-1.5-9.9-4.4-19.5-7.7-28.9
	c-3.5-10.3-7.2-20.6-10.7-31c-1.8-5.3-3.3-10.5-4.7-15.9C180.5,379,182.7,378.3,183.4,379.8z"/>
<path id="hilo2" class="st2" d="M575.8,378.4c-4.9,10.5-9.2,21.4-13.1,32.3c-3.6,9.9-7.4,19.9-10.2,30.1
	c-5.3,19.7-6.8,42.1,4.1,60.3c8.7,14.5,26.2,25.3,43.4,21.4c15.1-3.4,28-19,24.6-34.9c-2-9.3-9.4-17-19.3-16.9
	c-8.7,0-16.8,4.6-23.2,10.2c-13.1,11.5-20.1,29.3-18.1,46.6c2.5,21.4,17,38.4,27.1,56.6c4.4,8.1,7.9,16.5,9.6,25.6
	c1.5,8.4,1.6,17,0.1,25.4c-2.8,15.6-11.8,30.1-26.2,37.3c-12.7,6.3-28.7,7.4-41.5,0.6c-3-1.6-6-3.6-8.4-6.1
	c-2.4-2.5-6.6,1.1-4.1,3.6c5.2,5.3,11.4,9.2,18.5,11.2c7.2,2,14.7,2.3,22,1.1c15.1-2.4,28.6-11.1,36.7-24.1
	c8.9-14.3,11.3-32,8.6-48.5c-1.4-8.6-4.3-16.9-8.3-24.6c-4.7-9.2-10.6-17.8-15.9-26.7c-5.2-8.6-10-17.6-12-27.5
	c-1.7-8.2-1.3-16.7,1.3-24.7c2.5-7.7,7-14.9,12.9-20.5c5.6-5.3,13.2-10.3,21.2-9.9c8.4,0.3,13.8,8.1,13.8,16.1
	c0,7.1-3.6,13.7-8.9,18.4c-5.6,5-12.8,7.3-20.3,6.6c-7.7-0.7-15-4.3-20.7-9.4c-14.6-13.1-17.1-34.3-14.3-52.8
	c1.5-9.9,4.4-19.5,7.7-28.9c3.5-10.3,7.2-20.6,10.7-31c1.8-5.3,3.3-10.5,4.7-15.9C578.6,377.6,576.5,376.9,575.8,378.4z"/>
<path id="More" class="st1" d="M242.3,560.2c-0.5,3.8-2.5,6.6-6,8.2c-0.7,0.3-2.4,1-5.1,1.9c-1.2,0.4-2.5,0.8-3.8,1.1
	c-2.4,0.6-4.8,0.9-7.4,1.1c1.9,6.7,3.1,10.7,3.9,12.1c0.6,1.2,1.1,2.3,1.4,3.4c0.4,1.3,0.6,2.4,0.6,3.3c0,1.1-0.4,2-1.4,2.9
	c-0.9,0.9-2,1.3-3,1.3c-2.2,0.1-3.9-1.9-5.3-5.9c-0.7-2-1.2-3.5-1.5-4.6c-1.1-3.1-2-6.1-2.8-9.1l-2.2-9.2c-0.5-2.1-0.7-4.4-0.7-6.8
	c0.1-4.1,2.3-7.3,6.6-9.6c1.7-0.9,4.7-1.9,9-2.9c4.1-1,7.5-1,10.3-0.2c2.2,0.7,3.8,1.6,4.9,2.6c1.3,1.2,2.1,2.9,2.5,4.9
	C242.6,556.6,242.6,558.4,242.3,560.2z M230.1,559c-0.2-0.7-0.6-1.5-1.4-2.1c-1.6-1.5-3.6-2-6-1.4c-0.7,0.2-1.3,0.4-1.8,0.6
	c-3.2,1.3-4.3,3.7-3.4,6.9c0.6,2.2,2.7,2.9,6.3,2.2c2-0.4,3.2-0.8,3.7-1.2l0.8-0.6c0.2-0.2,0.3-0.4,0.4-0.5
	C229.9,561.5,230.4,560.2,230.1,559z M259.6,545.5l3.1-0.5c1.2-0.2,2.8,0,4.7,0.6c1.9,0.6,3.2,1.4,4,2.3c1.2,1.3,2,2.6,2.4,3.9
	c0.5,1.5,1,5.2,1.5,11.2c0.1,1.9,0.3,3.6,0.6,5c0.5,3.1,1.3,5.2,2.3,6.2c1.1,1.2,1.8,2.4,1.9,3.3c0.1,0.5,0.1,0.8,0,1.1
	c-0.5,1.3-1.5,2.1-2.9,2.3c-0.3,0.1-0.7,0.1-1.1,0.1c-1.3,0-2.6-1-3.9-3l-0.3,1c-0.8,1.7-2.3,3.1-4.6,4.4c-2,1.1-4,1.8-6.1,2
	c-1.9,0.2-3.6,0-4.9-0.6c-4-1.8-6.3-4.8-7.1-9c-0.5-2.8,0.1-5.3,1.7-7.6c1.6-2.2,3.8-3.7,6.7-4.4c0.4-0.1,1-0.2,1.6-0.3
	c2.8-0.5,5.3-0.3,7.3,0.4c0.6,0.3,1.1,0.5,1.4,0.7c0-0.6,0-1,0-1c0-1.1-0.1-2.1-0.2-2.9c-0.2-1.3-0.6-2.3-1.2-3.1
	c-1-1.3-2.1-1.9-3.2-2c-1.1,0-2.4,0.3-4,0.9c-0.3,0.1-0.6,0.2-1,0.3c-1.2,0.2-2.5,0-3.7-0.8c-1.3-0.7-2-1.7-2.2-3
	c-0.1-0.4-0.1-0.8,0-1.4c0.2-1.8,0.8-3.1,1.8-3.7c0.3-0.1,0.5-0.3,0.6-0.4c0.7-0.5,1.2-0.8,1.5-1C257,546.1,258.1,545.8,259.6,545.5
	z M263,577c0.9-0.8,1.2-1.6,1-2.6c-0.1-0.4-0.2-0.8-0.5-1.3c-0.8-1.4-1.9-2-3.4-1.8c-2.5,0.4-3.6,1.6-3.5,3.6
	c0.1,1.7,0.8,2.8,1.9,3.2c0.6,0.2,1.2,0.3,1.8,0.2C261.4,578.1,262.3,577.7,263,577z M301.2,546c3.3-0.2,5.1,1,5.7,3.6
	c0.5,2.6-0.2,4.1-2.4,4.5c-4.7,1-7.9,2.9-9.6,5.6c-0.6,1-0.8,3-0.4,6c0.1,0.8,0.3,2,0.6,3.7c0.3,1.6,0.5,2.8,0.6,3.7
	c0.4,3.3,0.1,5.4-1,6.3c-0.9,0.8-1.7,1.2-2.4,1.3c-0.4,0.1-0.8,0-1.1-0.1c-1.7-0.6-2.9-1.5-3.7-2.6c-0.4-0.7-0.9-2.2-1.6-4.6
	c-0.6-2.3-1.4-5.9-2.4-10.8c-1-4.9-1.8-8.5-2.4-10.9c-0.4-1.3-0.6-2.5-0.7-3.5c-0.3-2.1-0.1-3.5,0.6-4.4c0.9-1.3,1.8-2,2.7-2.1
	c0.6-0.2,1.2-0.3,1.7-0.4c2.6-0.3,4.2,0.5,5,2.6c0.9,2.6,1.3,5.2,1.3,7.8C294.8,548.1,297.9,546.2,301.2,546z M341.9,552.6
	c0.7,0.4,1.1,1.2,1.1,2.5c0.1,1-0.1,1.9-0.6,2.5c-0.3,0.4-1,1-1.9,1.6c-0.4,0.3-1.7,0.6-3.9,0.7c-1.4,0.1-3.1,0.2-5.2,0.2
	c0.1,1.7,0.3,3.9,0.4,6.5c0.1,3.1,0.2,5.2,0.3,6.5c0.1,1.3-0.2,2.3-0.8,3.2c-0.7,1-1.6,1.6-2.8,1.7c-0.5,0-0.9,0-1.3,0
	c-1.2-0.2-2-0.8-2.4-1.7c-0.2-0.4-0.4-1.4-0.6-3.1c-0.2-1.8-0.6-5.7-1.1-11.5c-2.2,0.7-4.1,1.2-5.8,1.3c-3.3,0.3-5.5-0.9-6.6-3.5
	c-0.3-0.7-0.4-1.3-0.5-1.9c-0.1-1.2,0.3-2.2,1.2-3c1.4-1.2,3-1.8,4.6-1.8c1.4,0,3.3-0.2,5.7-0.6c-0.5-5.4-0.8-9-1-11
	c-0.2-2.6-0.2-4.4,0.2-5.4c0.6-1.7,2-2.5,4.3-2.5c3.1,0.1,4.8,2.3,4.8,6.6c0,2,0.1,3.6,0.1,4.8l0.2,6.6c0.7,0.1,1.3,0.1,1.8,0
	c0.2,0,0.5-0.1,0.6-0.1c0.7-0.2,1.5-0.2,2.4-0.2c1.2,0,2,0.1,2.5,0.1C338.8,551.2,340.2,551.6,341.9,552.6z M364.4,535.3
	c1.1-0.6,2.1-0.9,3.1-0.9c0.5,0,0.9,0,1.3,0.1c1.2,0.3,2.1,0.7,2.6,1c0.5,0.4,0.8,1.1,0.9,2c0.3,2.6,0.6,4.6,0.7,5.9
	c0.2,2,0,6.4-0.7,13.2c-0.2,1.6-0.3,2.8-0.3,3.8c-0.3,3.2-0.5,5.5-0.7,6.8c-0.5,2.8-1.4,4.9-2.5,6.3c-1.5,1.7-3.8,2.6-7.1,2.8
	c-1.5,0.1-3.1,0-4.8-0.2c-4.3-0.6-6.9-2.3-8-4.9c-0.4-1-0.5-2.1-0.4-3.2c0.2-2,1.2-3,3.2-3.1c0.6,0,1.1,0.1,1.5,0.3
	c0.9,0.5,1.5,0.8,1.7,1.1c1.7,0.8,2.7,1.2,3,1.2c0.7-0.1,1.7-0.1,2.9-0.1c1.4-0.3,2.4-0.6,3-1.1c0.6-0.5,1-1.3,1.3-2.6
	c0.4-1.8,0.6-3.3,0.6-4.6c0.1-0.5,0.1-0.8,0.1-1c-0.1,0.1-0.6,0.6-1.5,1.4c-1.3,1.1-3.6,1.6-7,1.6c-0.7,0-1.9-0.2-3.4-0.5
	c-1.5-0.3-2.6-0.6-3.2-0.9c-0.4-0.2-0.7-0.4-1-0.6c-0.5-0.3-1-0.8-1.6-1.7c-0.7-1.1-1.2-2.6-1.5-4.4c-0.1-0.4-0.3-1.5-0.4-3.3
	c-0.2-2.3-0.3-3.9-0.4-4.8c-0.2-2.1-0.3-3.5-0.4-4.3c-0.1-1.3,0.3-2.5,1.3-3.8c0.6-0.8,1.4-1.2,2.4-1.2c0.4,0,0.9,0.1,1.5,0.2
	c1.7,0.5,2.6,1.3,2.7,2.6c0.1,1.2,0.1,1.8,0.1,2c0.1,1.3,0.2,2,0.2,2.1c0.1,1.6,0.1,3,0,4.4c-0.1,2.8,0.5,4.5,1.9,5
	c0.6,0.2,1.4,0.3,2.3,0.4c0.2,0,0.9,0,2,0c0.9-0.2,1.6-0.7,2.1-1.2c0.4-0.4,0.7-1.2,1-2.3c0.2-1,0.3-2.7,0.2-5.2
	c-0.1-2.2,0-3.7,0.1-4.4C363.4,537.2,363.9,536,364.4,535.3z M426.6,565.5c-0.4,1.2-1.5,2.8-3.3,4.8c-2.4,2.7-5.7,4.5-10.1,5.6
	c-1.3,0.3-2.7,0.5-4.3,0.4c-4.1-0.1-7.4-0.7-9.8-1.9c-3.3-1.6-5.4-8.7-6.2-21.2c-0.3-4.9-0.4-8.4-0.2-10.7c0.3-3.9,0.9-6.5,1.6-7.9
	c1.2-2.1,3.4-3.5,6.6-4.2c2.5-0.5,4.9-0.7,7-0.7c1.1,0,2.1,0.2,3.2,0.4c2.7,0.6,5.2,1.5,7.3,2.6c2.1,1.2,3.8,2.5,5,4.2
	c0.9,1.2,1.9,3.2,3,5.9c0.1,0.2,0.1,0.4,0.3,0.5c1.4,3.8,2,7.8,1.8,12.1C428.4,559,427.7,562.3,426.6,565.5z M406.8,541.8
	c-1,0-1.8,0.1-2.5,0.4c-1.3,0.6-2.3,2.7-2.8,6.5c-0.3,2.5-0.4,5.1-0.3,7.6c0.1,2.8,0.3,4.9,0.6,6.1c0.3,1.2,1,2.2,2.3,2.9
	c1.1,0.6,2.3,1,3.7,1c1,0,2.1-0.1,3.2-0.4c2.5-0.6,4.3-1.8,5.5-3.6c1-1.5,1.7-3.6,2-6.4c0.3-2.8-0.4-5.6-2.2-8.4
	c-1.8-2.8-4-4.6-6.7-5.3C408.6,541.9,407.7,541.8,406.8,541.8z M454.7,559.8c-1.9,1.1-4.1,1.6-6.4,1.4c-2.4-0.2-5.1-1.1-8-2.7
	c-0.1,0.5-0.2,1-0.3,1.5c-0.1,1.4,0.1,2.9,0.6,4.7c0.8,2.8,2.2,4.3,4.1,4.7c2.2,0.4,4.5,0.4,6.8-0.1c0.4-0.1,0.8-0.1,1.3-0.1
	c1.5,0.1,2.3,1.3,2.2,3.5c0,2.7-2,4.5-6,5.4c-1.5,0.4-3,0.5-4.5,0.3c-2.3-0.2-4.5-1-6.6-2.4c-3.5-2.3-5.3-8.4-5.5-18
	c0-1.6,0-3.3,0.2-5c0.6-6.9,3.1-11.6,7.3-14c2.2-1.5,4.9-2.2,8.1-1.9c1.7,0.2,3.5,0.5,5.4,1.1c5.6,1.8,8.2,5.3,7.7,10.5
	C460.6,553.8,458.5,557.5,454.7,559.8z M443.6,549.4c-0.1,1,0.3,1.9,0.9,2.7c0.7,0.8,1.5,1.2,2.5,1.4c1.5,0.2,2.8,0,3.8-0.8
	c0.5-0.4,0.8-1,0.9-1.7c0.1-0.7-0.1-1.6-0.4-2.7c-0.5-1.6-1.4-2.5-2.6-2.6c-0.5,0-1,0-1.7,0.3C444.9,546.5,443.7,547.7,443.6,549.4z
	 M491.4,551.7c-0.3,1.9-1.3,2.7-3,2.5c-0.7-0.1-1.6-0.4-2.7-0.9c-2.1-1-4-1.7-5.7-1.9c-3.9-0.5-6.9,1.1-8.8,5
	c-0.5,1.1-0.9,2.3-1.1,3.6c-0.2,1.8-0.2,3.8,0.2,6.2c0.5,3,2.2,4.7,5,5c0.8,0.1,2,0.1,3.7-0.1c1.6-0.2,2.8-0.2,3.7-0.1
	c2.6,0.3,4.1,1.6,4.6,3.8c0.2,0.7,0.2,1.5,0.1,2.2c-0.3,1.9-1.8,3.3-4.5,4.1c-3,0.3-5,0.4-6.3,0.3c-2.7-0.3-5.7-1.3-8.7-3.1
	c-4.4-2.5-6.2-7.7-5.5-15.6c0.3-3,0.8-6.3,1.6-9.7c1.1-4.4,2.2-7.4,3.5-9c2.2-2.8,6.3-3.7,12.3-2.7c7.9,1.3,11.8,4.4,11.7,9.5
	C491.4,551,491.4,551.3,491.4,551.7z M518.8,550.1c3.5,1.9,5.2,6.2,5.2,12.8c0,1.2-0.2,4.2-0.6,9c-0.1,0.6-0.2,1.3-0.3,2.1
	c-0.5,2.8-1.6,5.4-3.3,7.6c-1.7,2.3-4,3.8-6.8,4.6c-2.6,0.8-5.4,0.8-8.4,0.1c-3.2-0.8-5.5-1.9-7.2-3.3c-1.8-1.7-3-3.6-3.5-5.7
	c-0.4-1.6-0.5-4.2-0.4-7.7c0.1-3.2,0.4-5.8,0.7-7.8c0.2-0.9,0.4-1.7,0.6-2.2c1-2.8,1.7-4.6,2.2-5.6c1-1.9,2.3-3.4,3.8-4.6
	c2.8-2,6.9-2.4,12.5-1.1C516.1,549,517.8,549.6,518.8,550.1z M514.9,566c0.3-2.5,0.3-4.4,0-5.8c-0.4-2.3-1.6-3.6-3.5-4
	c-2.5-0.5-4.3-0.2-5.5,1c-1,1-1.7,2.8-2.1,5.4c-0.6,3.4-1,6.2-1.3,8.6c-0.4,3.3,0.3,5.6,2.1,6.7c0.6,0.4,1.3,0.7,2,0.8
	c1.3,0.2,2.6,0.1,4-0.5c1.8-0.7,2.9-2.3,3.3-4.8c0.1-0.3,0.1-0.9,0.2-1.7L514.9,566z M550.8,562c3.1,1,4.4,2.8,4,5.4
	c-0.4,2.6-1.7,3.7-3.8,3.4c-4.7-0.8-8.4-0.2-10.9,1.8c-1,0.7-1.8,2.6-2.5,5.5c-0.2,0.8-0.4,2-0.7,3.6c-0.3,1.6-0.5,2.8-0.7,3.6
	c-0.8,3.2-1.8,5-3.2,5.5c-1.1,0.4-2,0.5-2.7,0.3c-0.4-0.1-0.8-0.3-1-0.5c-1.4-1.2-2.2-2.4-2.5-3.8c-0.1-0.8-0.1-2.4,0.2-4.8
	c0.3-2.4,0.8-6,1.6-10.9c0.8-4.9,1.4-8.6,1.6-11.1c0.1-1.4,0.3-2.6,0.6-3.5c0.5-2,1.2-3.3,2.1-3.9c1.4-0.9,2.4-1.2,3.3-1
	c0.6,0.1,1.2,0.2,1.7,0.3c2.5,0.6,3.8,2,3.7,4.2c-0.1,2.7-0.6,5.3-1.6,7.8C544.1,561.6,547.7,561,550.8,562z"/>
<path id="Paty" class="st2" d="M314.6,619.7c-0.5,0.8-1.3,1.6-2.4,2.6c-1.5,1.2-2.4,2.1-2.7,2.4l3,1.8c2.6,1.6,4,3.1,4.1,4.4
	c0.1,0.6-0.1,1.3-0.5,2c-0.6,1-1.3,1.5-2,1.6c-1.1,0.1-2.3-0.1-3.6-0.7c-0.4-0.2-1.5-0.8-3.3-1.9c-1-0.6-1.9-1.3-2.6-2
	c-1.7,1.6-3.9,3.6-6.5,6c-0.9,0.8-2.3,1.3-4.3,1.5c-1.7,0.2-2.7,0.2-3.1,0c-0.5-0.1-1.1-0.2-1.8-0.4c-2.2-0.7-3.7-1.7-4.4-3.1
	c-0.5-1-0.8-1.7-0.9-2.2c-0.1-1.1-0.2-1.8-0.1-2c0-0.2,0.3-0.8,0.8-1.6c0.5-0.9,1-1.8,1.6-2.8c1.2-1.5,3-3.7,5.4-6.6
	c-1.7-1.6-3.2-3.4-4.5-5.3c-1.6-2.4-2.6-4.5-2.8-6.3c-0.2-1.6,0.3-3.2,1.4-4.5c1-1.2,2.3-2.1,4-2.8c1.7-0.7,3.6-1.1,5.9-1.4
	c5.8-0.7,9.8,0.4,12.2,3.2c0.8,0.9,1.3,2.1,1.4,3.5c0.2,1.4-0.3,3-1.4,4.7c-0.7,1-1.8,2.5-3.4,4.3c-1.6,1.8-2.8,3.3-3.4,4.3l2.9,2.3
	c1.1-0.8,2-1.7,2.8-2.5c0.5-0.6,1.4-1.5,2.5-2.8c1.1-1.2,2-1.9,2.7-2c1.1-0.1,2.1,0.1,3,0.6c0.1,0.1,0.3,0.4,0.8,0.7
	c0.4,0.4,0.7,0.7,0.7,0.8C316.2,616.6,315.7,617.9,314.6,619.7z M295.4,623.6l-4,5.5l-0.1,0.4c0.2,0.6,0.4,0.9,0.6,1.1
	c0.2,0.2,0.6,0.2,1.1,0.1c0.3,0,0.6-0.1,0.8-0.3c1-0.9,2.6-2.3,4.6-4.3L295.4,623.6z M295.7,613.9c1.6-2.2,2.8-4.1,3.6-5.5
	c0.2-0.3,0.2-0.9,0.1-2c-0.1-0.7-0.5-1.1-1.3-1.2c-0.3-0.1-1,0-2.1,0.1c-1.6,0.2-2.7,0.8-3.3,1.9c-0.1,0.2-0.1,0.6,0,1.3
	C292.9,610.3,293.9,612.1,295.7,613.9z M358.4,601.6c1.5-7,3.3-11,5.2-12c1.4-0.7,2.7-1,3.9-1.1c2.2-0.1,4.1,1.3,5.7,4.1
	c1.3,2.3,2.1,6.2,2.5,11.8c0.4,5.6,0.7,9.8,0.9,12.5c0.4,4.6,0.5,8,0.5,10.2c0,4.1-1.2,6.3-3.5,6.3c-0.6,0-1.2-0.1-1.9-0.5
	c-1.6-0.8-2.7-2.5-3.4-5.2c-0.3-1.1-0.6-3.3-1-6.5c-0.2-1.6-0.4-4.1-0.6-7.6c-0.2-2.1-0.3-6.3-0.3-12.5c-0.9,3.5-1.6,7.5-2,11.9
	c-1.1,11.9-2.3,18.2-3.5,18.9c-1.3,0.7-2.3,1.1-3,1.1c-0.8,0-1.7-0.2-2.9-0.7c-1.6-0.7-2.5-1.9-2.8-3.6c-0.4-2.5-1-5.5-1.8-8.9
	c-0.5-2.1-1.2-5.1-2.1-8.8c-0.9-3.7-2.1-7-3.5-9.7c-0.4,1.5-0.3,4.9,0.3,10.1c0.5,5.8,0.9,10.2,1.2,13.4c0.3,3.6,0.5,5.5,0.4,5.9
	c-0.2,2.2-1.5,3.6-3.7,4.2c-0.4,0.1-0.7,0.2-0.9,0.2c-1.1,0-2.3-0.5-3.4-1.7c-1.5-1.5-2.2-5.5-2.2-12c0-6.3-0.1-10.3-0.4-12.1
	c-0.2-1.6-0.5-4.2-0.7-7.8c-0.2-3.2,0.1-5.9,1.1-8.1c1.2-2.9,3.3-4.4,6.2-4.5c0.6,0,1.2,0,1.9,0.1c3.6,0.5,6.1,2.7,7.5,6.5
	c1.8,5.1,3.1,11.8,3.8,20.1C357,609,357.8,604.2,358.4,601.6z M403.8,596c3.8,1.4,6.2,5.3,7.2,11.8c0.2,1.2,0.5,4.2,0.8,9
	c0,0.6,0.1,1.3,0,2.1c-0.1,2.9-0.8,5.5-2.1,8.1c-1.3,2.5-3.3,4.4-5.9,5.7c-2.5,1.2-5.2,1.7-8.2,1.4c-3.2-0.3-5.8-1-7.6-2.1
	c-2.1-1.3-3.5-3-4.3-5.1c-0.6-1.6-1.2-4.1-1.6-7.5c-0.4-3.2-0.6-5.8-0.5-7.8c0-0.9,0.1-1.7,0.2-2.3c0.5-2.9,0.9-4.8,1.3-5.9
	c0.7-2,1.7-3.7,3-5.1c2.4-2.5,6.4-3.5,12.1-3C400.9,595.3,402.7,595.6,403.8,596z M402.4,612.3c-0.2-2.5-0.5-4.4-0.9-5.7
	c-0.8-2.2-2.2-3.3-4.1-3.4c-2.5-0.1-4.3,0.5-5.3,1.8c-0.8,1.1-1.2,3-1.3,5.7c0,3.4,0,6.3,0.1,8.7c0.1,3.3,1.2,5.4,3.2,6.3
	c0.7,0.3,1.4,0.5,2.2,0.5c1.3,0,2.6-0.3,3.9-1.1c1.6-1,2.5-2.8,2.5-5.3c0-0.3,0-0.9,0-1.8L402.4,612.3z M437.1,602.4
	c3.2,0.5,4.8,2,4.8,4.6c0,2.6-1,4-3.2,4c-4.8,0.1-8.3,1.3-10.5,3.6c-0.8,0.9-1.4,2.8-1.6,5.8c-0.1,0.8-0.1,2.1-0.1,3.7
	c0,1.6,0,2.9-0.1,3.7c-0.2,3.3-1,5.3-2.2,6c-1,0.6-1.9,0.8-2.6,0.8c-0.4,0-0.8-0.1-1.1-0.3c-1.6-0.9-2.6-2-3.1-3.3
	c-0.3-0.8-0.5-2.4-0.6-4.8c-0.1-2.4-0.2-6.1-0.2-11c0-5-0.1-8.7-0.3-11.2c-0.1-1.4-0.1-2.6,0-3.6c0.1-2.1,0.6-3.5,1.4-4.2
	c1.2-1.1,2.2-1.6,3.1-1.5c0.7,0,1.2-0.1,1.8,0c2.6,0.2,4.1,1.4,4.4,3.5c0.4,2.7,0.3,5.3-0.2,7.9
	C430.5,603.1,433.9,601.9,437.1,602.4z M466.2,620.1c-1.9,1.1-4.1,1.5-6.4,1.2c-2.4-0.3-5.1-1.2-7.9-2.9c-0.1,0.5-0.3,1-0.3,1.5
	c-0.2,1.4,0,2.9,0.5,4.7c0.8,2.8,2.1,4.4,4,4.8c2.2,0.5,4.5,0.5,6.8,0.1c0.4-0.1,0.8-0.1,1.3,0c1.5,0.2,2.2,1.4,2.1,3.5
	c-0.1,2.7-2.1,4.5-6.2,5.3c-1.5,0.3-3.1,0.4-4.5,0.2c-2.3-0.3-4.4-1.1-6.5-2.6c-3.4-2.4-5.1-8.5-5.1-18.1c0-1.6,0.1-3.3,0.3-5
	c0.8-6.9,3.3-11.5,7.6-13.8c2.2-1.5,4.9-2,8.1-1.7c1.7,0.2,3.5,0.6,5.3,1.3c5.5,1.9,8,5.5,7.5,10.7
	C472.3,614.3,470.1,618,466.2,620.1z M455.4,609.5c-0.1,1,0.2,1.9,0.9,2.7c0.7,0.8,1.5,1.2,2.5,1.4c1.5,0.3,2.8,0,3.8-0.7
	c0.5-0.4,0.8-0.9,0.9-1.7c0.1-0.7,0-1.6-0.3-2.7c-0.5-1.7-1.3-2.6-2.6-2.7c-0.5-0.1-1,0-1.7,0.2
	C456.7,606.6,455.5,607.8,455.4,609.5z"/>
<radialGradient id="LogoIDS_1_" cx="484.6319" cy="170.7746" r="354.0194" fx="489.594" fy="171.6566" gradientTransform="matrix(-0.911 -0.4123 0.4232 -0.9351 853.8761 530.29)" gradientUnits="userSpaceOnUse">
	<stop  offset="0.2467" style="stop-color:#F9CE4B"/>
	<stop  offset="0.7706" style="stop-color:#AC8A35"/>
	<stop  offset="0.8271" style="stop-color:#9C7E1D"/>
	<stop  offset="0.8783" style="stop-color:#8E7306"/>
	<stop  offset="0.9069" style="stop-color:#886E00"/>
</radialGradient>
<path id="LogoIDS" class="st3" d="M752.6,230.2c-0.7-2-1.7-3.8-2.9-5.4c-1.3-1.5-2.8-2.8-4.4-3.8c-0.9-0.5-2.2-0.9-4-1.3
	c-4.3-0.9-8.1-0.3-11.6,1.6c-3.4,2-6.6,4.4-9.4,7.3c-3.2,3.1-6.1,7-8.6,11.5c-4.6,5.4-11.5,13.4-20.6,24.2
	c-9.1,10.8-19.1,21.7-30,32.7c-1.4-0.2-2.7-0.3-3.9-0.4c-0.4-1.1-1.2-2-2.4-2.8c-1.8-1.1-3.4-1.5-5-1.2c-1.6,0.3-3,0.9-4.4,1.7
	c-1.4,1.1-2.6,2.4-3.6,3.8c-0.6,0.7-1.2,1.5-1.8,2.3c-2.6,1.3-5,2.8-7.1,4.5c-4.1,2.9-7.5,6.5-10.3,10.7c-2.7,3.7-4.9,7.3-6.5,10.8
	c-2,1.7-3.9,3.4-5.9,5c-5.9,4.7-11.3,8.3-16.2,10.8c-4.9,2.5-8.5,2.5-10.8,0.1c-1.7-1.7-1.5-4.9,0.7-9.5c2.2-4.6,4.9-9.4,8.2-14.4
	c4-5.8,8.5-12.2,13.6-19.2c2.2-2.9,5.3-7.3,9.5-13.3c4.2-6,7.6-12.5,10.3-19.5c2.7-7,4.1-14,4.2-20.8c0-6.8-3-12.4-9.1-16.8
	c-4.7-3.3-9.5-5.1-14.6-5.6c-5.1-0.5-10.3-0.1-15.5,1.3c-5.3,1.4-10.5,3.5-15.6,6.4c-5.1,2.9-10,6.2-14.7,9.8
	c-11.1,8.3-22.1,18.8-33,31.8c-3.9,4.6-7.4,9-10.6,13.2c-3.2,4.2-6.3,8.3-9.2,12.4c4.1-6.4,8-12.6,11.9-18.5
	c3.8-5.8,7.4-10.8,10.6-14.8c3.9-4.9,7.5-9.4,10.7-13.4c7-7.4,10.9-14.6,11.9-21.5c1-6.9-2.3-11.2-9.9-12.9c-4.3-1-8.1-1.1-11.7-0.2
	c-3.5,0.9-6.9,2.4-10.2,4.4c-3.3,2-6.4,4.4-9.1,7.3c-2.8,2.8-5.4,5.7-7.8,8.6c-3.6,4.9-7.4,10.2-11.4,15.7c-3.3,5-7,10.8-11.1,17.6
	c-1.5,2.4-2.9,4.9-4.3,7.4c-0.3-0.6-0.6-1-0.9-1c-1.6,0-2.9,0.4-4,1.1c-1.1,0.8-2,1.4-2.6,2.1c-0.9,1.2-1.7,2.3-2.4,3.2
	c-2.9,4.9-7,10.3-12.5,16.1c-5.5,5.8-11.3,11.2-17.4,16.3c-6.1,5-11.9,9.3-17.4,12.8c-5.5,3.5-9.6,5.2-12.4,5.2
	c-3.4,0-5.1-1.8-5-5.2c0.1-4,2.1-9.8,6.1-17.3c4-7.5,8.5-15.2,13.6-23.1c5.1-7.8,10-15.2,15-22.1c4.9-6.9,8.5-11.7,10.7-14.5
	c3.5-4.6,6.2-9.1,8.1-13.4c1.9-4.3,2.9-8.3,3-12c0.1-3.7-1.1-7-3.3-9.8c-2.3-2.8-6.1-4.3-11.3-4.3c-4.3-0.1-8.4,1.2-12.1,3.8
	c-3.8,2.6-7.2,5.4-10.3,8.5c-3.5,3.7-6.9,7.8-10.4,12.4c-7.6,10.4-14.5,20.9-20.9,31.3c-5.4,8.9-10.8,18.8-16.2,29.8
	c-5.4,10.9-9.3,21.3-11.6,31.2c-1,4.3-1.5,8-1.5,11.1c-0.1,6.8,1,12,3.3,15.6c2.3,3.6,5,6.3,8,8.2c3.4,2.2,7.2,3.7,11.6,4.3
	c7.1,0.1,14.4-1.5,21.7-4.8c7.3-3.3,14.4-7.5,21.3-12.7c6.9-5.2,13.3-10.8,19.3-16.9c5.2-5.4,10-10.5,14.2-15.5
	c-1.2,4.4-2.2,8.9-3,13.5c-1.2,7.7-1.2,14.8,0,21.3c1.2,6.5,4.7,11,10.4,13.4c6,2.8,13.4,3,22.3,0.8c4.2-1.1,6.5-3.1,7.1-5.8
	c0.4-0.9,0.3-1.6-0.3-2.1c-0.6-0.5-1-1-1.3-1.3c-1.8-1.1-3-2.6-3.8-4.6c6.7-14.6,15.2-28.5,25.3-41.6c10.2-13.2,20.3-24.7,30.5-34.6
	c10.2-9.9,19.4-17.6,27.7-23.2c8.3-5.6,14-8,17.1-7.4c1.5,0.5,2.8,1.4,3.9,2.7c0.5,1.3,0.7,3,0.7,5.2c-0.1,2.2-1.2,5.3-3.5,9.5
	c0.5-1.5,0.7-2.9,0.9-4.1c0.3-2.8-0.1-5-1.2-6.7c-1.2,3-2.9,5.3-4.9,7c-7.1,9-13.8,18-19.9,27c-5.1,7.6-10.1,15.8-15,24.7
	c-4.9,8.9-8.5,16.9-10.8,24.2c-2.8,9.1-3.4,16.3-1.9,21.8c1.5,5.4,3.8,9.6,7,12.4c3.4,3.5,7.8,5.8,13.3,6.9c2.3,0.4,4.5,0.6,6.8,0.6
	c-1.5,6.9-3.8,17.3-3.4,17.9c0,0,0.1-0.1,0.1-0.1c0.6,3,7.1,4.9,14.9,4.4c8-0.5,14.4-3.5,14.2-6.6c-0.2-3.1-6.9-5.2-14.9-4.7
	c-2.2,0.1-4.3,0.5-6.2,0.9c5.7-3.1,12.2-4.5,18.8-4.4c-0.8-1.9-5.7-5.1-10.5-9.6c0.3-0.1,0.7-0.2,1-0.3c7.1-2.6,14-6.3,20.7-11
	c1.3-0.9,2.6-1.9,3.9-2.9c2-0.4,4.2-1.1,6.7-2.1c1.6,4.5,3.7,8.3,6.2,11.5c2.5,3.2,5,5.9,7.4,7.9c3,2.5,6,4.6,9.2,6.2
	c6.9,3.6,13.5,6.1,19.9,7.5c11.3,2.3,21.2,1.6,29.6-2.4c8.5-3.9,15.6-9.7,21.5-17.4c5.9-7.6,10.6-16.3,14.3-26
	c3.6-9.7,6.4-19.1,8.3-28.2c1.5-7.3,2.5-13.7,2.8-19.3c0.4-5.6,1.1-11,2.2-16.2c1.2-5.8,2.6-10.9,4.2-15.5c1.6-4.6,3.2-8.4,4.8-11.6
	c2-3.7,4-6.9,5.8-9.7c2.3-3.6,3.7-6.5,4.2-8.6C753.4,234.5,753.3,232.3,752.6,230.2z M695.4,291c0.1,0.3,0.2,1.1,0.3,2.2
	c0.1,1.1-0.1,3.2-0.6,6.3c-0.5,3.1-1.6,8.7-3.3,16.9c-0.9,4.6-2.2,9.2-3.6,14c-1.5,4.8-3.2,9.1-5.3,12.9c-2.1,3.8-4.6,6.8-7.6,8.9
	c-3,2.1-6.3,2.7-10,1.9c-5.5-1.2-9.2-3.3-10.9-6.5c-1.7-3.2-2.3-6.5-1.6-9.8c1.3-6.4,4.3-11.4,8.9-15c4.6-3.6,8.6-5.1,12-4.4
	c2.2,0.4,3.5,1.3,4.1,2.5c0.5,1.2,1.9,2.1,4.1,2.5c1.8,0.4,3-0.6,3.5-3.1c0.8-3.6,0.4-6.7-1.2-9.3c-1.6-2.5-3.3-4.6-5.2-6.3
	c2.8-2.9,5.6-5.8,8.3-8.7c2.7-2.9,5.7-6.1,9-9.5C695.5,289.1,695.3,290.6,695.4,291z"/>
<radialGradient id="LogoTW_1_" cx="396.4066" cy="101.7115" r="417.7731" gradientTransform="matrix(-2.009985e-02 0.9998 -1.8407 -3.700611e-02 591.599 -290.8511)" gradientUnits="userSpaceOnUse">
	<stop  offset="0" style="stop-color:#FDE7B1"/>
	<stop  offset="7.692129e-02" style="stop-color:#F9CE4B"/>
	<stop  offset="0.7919" style="stop-color:#AC8A35"/>
	<stop  offset="0.8395" style="stop-color:#9C7E1D"/>
	<stop  offset="0.8827" style="stop-color:#8E7306"/>
	<stop  offset="0.9069" style="stop-color:#886E00"/>
</radialGradient>
<path id="LogoTW" class="st4" d="M417.3,116.5c-2.2-7.1-7-12.7-14.5-16.6c-7.5-3.9-16.9-6.2-28.3-6.8c-11.4-0.6-24.3,0.5-38.8,3.1
	c-14.5,2.6-29.5,6.9-45,12.8c-7.1,2.5-15.2,5.7-24.3,9.7c-9.1,4-18.9,8.4-29.3,13.2c-10.4,4.8-21.1,9.7-32.3,14.8
	c-11.1,5.1-22.2,9.9-33.3,14.5c3.9-5.3,6.1-10,6.5-14.2c0.4-4.2,0.1-7.6-0.8-10.3c-1.3-3.2-3.2-6-5.6-8.3c-3.8-3-7.7-4.1-11.7-3.4
	c-4,0.7-7.6,2.2-10.9,4.5c-3.9,2.4-7.9,5.8-12.1,10.2c-3.1,3.5-6.2,7.5-9.3,12c-2.9,4.1-6.3,8.9-10,14.3
	c-3.8,5.4-7.7,11.7-11.9,18.9c-9.3,2.6-17.1,3.8-23.5,3.6c-6.4-0.2-10.8-2.1-13.1-5.7c-1.1-2-2.4-2.5-4.1-1.5
	c-0.8,0.5-1.5,1.1-2,1.9c-1.2,1.8-2.2,4-2.9,6.3c-0.8,2.4-1.1,4.8-1.1,7.1c0,2.4,0.8,4.8,2.2,7.1c1.5,2.4,3.8,4.3,7,5.9
	c5.6,2.6,13.7,3.2,24.2,1.9c-7.6,16.5-14.3,35.1-20.1,55.7c-5.9,20.6-9,42.8-9.2,66.6c0,4.4,0.2,10.3,0.7,17.7
	c0.5,7.3,1.6,14.8,3.4,22.3c1.8,7.5,4.5,14.1,8,19.7c3.6,5.6,8.6,8.6,15,9.1c5.5,0.4,10.7-0.6,15.8-2.9c5-2.3,9.9-5.7,14.5-10
	c4.6-4.3,9-9.3,13.2-15c4.2-5.6,8-11.4,11.5-17.2c4.1-7,8.1-14.6,11.8-22.7c-0.2,5.5,0,11,0.6,16.5c0.5,5.6,2,10.6,4.6,15
	c2.2,3.9,5.4,7.4,9.6,10.6c1.9,1.5,4.2,2.6,6.9,3.4c-4.9,4.5-9.8,7.8-10.6,9.6c5.2,0,10.2,0.8,14.8,2.6c-0.7-0.1-1.4-0.2-2.1-0.2
	c-8-0.5-14.7,1.6-14.9,4.7s6.1,6.1,14.2,6.6c7,0.4,12.9-1.1,14.5-3.5c0.1,0.1,0.2,0.2,0.3,0.3c0.1-0.1,0.1-0.5,0-1.1
	c0-0.1,0.1-0.3,0.1-0.4c0-0.5-0.1-0.9-0.4-1.4c-0.7-3.9-2.2-11-3.3-15.9c8.2-0.1,15.9-3,22.9-8.6c7.4-5.9,14-13.2,19.8-21.8
	c1,4.3,2.5,8.4,4.6,12.4c2.1,4,5.4,7.4,10,10.1c1,0.5,2.6,1.2,4.8,1.9c2.2,0.7,5,0.6,8.4-0.3c10.5-4.3,20.5-9.9,30-16.8
	c9.5-6.9,17.7-13.7,24.6-20.6c8-7.8,15.4-16,22.1-24.3c10.9-14,19-27.2,24.3-39.7c5.3-12.4,8.4-23.4,9.3-32.8
	c0.9-9.4-0.1-16.9-2.9-22.6c-2.8-5.7-6.8-8.9-11.8-9.7c-4.1-0.6-7.7-0.4-10.9,0.5c-3.2,0.9-5.9,2.3-8.3,4.2c-2.3,1.9-4.3,4.1-6,6.6
	s-3,4.7-4.1,6.7c-0.5,1-0.9,2.1-1.1,3.4c-0.4,2.2,0.5,4.3,2.9,6.3c5.7,4.8,8.3,10.9,7.7,18.5c-0.6,7.5-2.4,14.8-5.6,21.9
	c-3.6,8.4-8.6,17.1-15,26c-5.6,7.6-11.7,14.3-18.3,20c-6.7,5.7-13.4,10.6-20.2,14.6l-0.4,0.5c-3.5,2.5-7,3.9-10.4,4.2
	c-2.8,0.2-5.4-0.5-7.9-2.1c-2.5-1.7-4-5.3-4.4-10.8c1.5,2.7,3,4.6,4.7,5.7c3.7,3.1,8.4,3.2,14,0.2c-1.1-2.4-1.6-5.5-1.3-9.2
	c0.3-3.8,1.1-7.9,2.4-12.3c1.3-4.5,2.9-9.2,4.8-14.2c1.9-5,4-9.9,6.4-14.8c5.2-11.3,11.7-23.4,19.3-36.2c5.5-8.6,8.1-16.3,7.8-23.3
	c-0.3-7-4.3-10.6-12.1-10.8c-4.1-0.3-7.8,0.4-11.3,1.9c-3.4,1.5-6.5,3.6-9.3,6.2c-2.7,2.6-5.2,5.5-7.4,8.8c-2.2,3.3-4.3,6.6-6.1,9.9
	c-1.4,2.3-2.8,4.9-4.4,7.9c-1.3,2.6-2.9,5.6-4.6,9c-1.7,3.4-3.7,7.2-5.8,11.5c-2.4,4.9-5.2,11.5-8.5,19.9
	c-3.3,8.4-7.1,16.6-11.4,24.8c-4.3,8.1-9,15.2-14.3,21.1c-5.2,5.9-10.7,8.6-16.3,8.2c-3.4,0-5.7-1.4-6.9-4.1
	c-1.2-2.7-1.5-6.1-1.1-10.2c0.4-4.1,1.4-8.8,3-14c1.6-5.3,3.5-10.6,5.8-16.1c5.1-12.9,12.2-27.3,21.4-43.4
	c5.5-8.6,8.1-16.3,7.8-23.3c-0.3-7-4.3-10.6-12.1-10.8c-4.1-0.3-7.8,0.4-11.3,1.9c-3.4,1.5-6.5,3.6-9.3,6.2
	c-2.7,2.6-5.3,5.5-7.6,8.8c-2.4,3.3-4.5,6.6-6.4,9.9c-5.9,10.5-11.2,21.5-15.8,33.1c-1.6,4.3-3.2,8.8-4.6,13.4
	c-0.2-0.1-0.4-0.2-0.6-0.2c-1.7-0.6-3.2-0.5-4.5,0.2c-1.3,0.7-2.4,1.7-3.4,2.9c-1,1.5-2,3.1-3.2,5c-1.5,4.8-3.9,10-7.1,15.8
	c-3.2,5.8-6.7,11.4-10.4,17c-3.7,5.6-7.5,10.7-11.5,15.3c-3.9,4.6-7.2,8.2-9.8,10.7c-3,2.2-5.6,3.3-7.9,3.1
	c-2.6-0.1-4.3-0.7-5.1-1.8c-0.9-1.1-1.7-2.8-2.5-5.2c-2.4-12.5-2.5-25.5-0.5-39.1c2-13.6,5.2-27,9.6-40.3
	c4.4-13.3,9.7-26.2,15.7-38.6c6.1-12.4,12.1-23.7,18.2-33.8c-5.3,1.8-10,2.8-14.1,3c-4.1,0.2-7.4,0.3-9.9,0.2
	c-3.2-0.3-5.9-0.8-8-1.6c9.8-1.8,17.8-3.6,24-5.6c6.2-2,10.5-3.4,12.9-4.2c15.7-5.3,32.3-11.4,49.8-18.3
	c17.5-6.9,34.9-13.7,52.2-20.5c17.3-6.7,34-12.7,50.1-17.9c16.2-5.2,30.6-8.7,43.4-10.5c12.8-1.8,23.3-1.4,31.6,1.1
	c8.3,2.5,13.4,8.1,15.3,16.9l0.8,3.6c0.6,2.7,1.6,4.6,3.1,5.5c0.7,0.5,2.3,0.6,4.6,0.4c2.3-0.2,4.6-1.3,6.7-3.3
	c4.5-4.1,8.4-9.3,11.6-15.6C419.4,132.6,419.8,125.1,417.3,116.5z"/>
<radialGradient id="LogoEstrella_1_" cx="478.9079" cy="178.5768" r="41.2903" fx="460.3584" fy="153.788" gradientUnits="userSpaceOnUse">
	<stop  offset="1.112723e-02" style="stop-color:#FDE7B1"/>
	<stop  offset="0.4108" style="stop-color:#F9CE4B"/>
	<stop  offset="0.8887" style="stop-color:#AC8A35"/>
	<stop  offset="0.9348" style="stop-color:#9C7E1D"/>
	<stop  offset="0.9766" style="stop-color:#8E7306"/>
	<stop  offset="1" style="stop-color:#886E00"/>
</radialGradient>
<path id="LogoEstrella" class="st5" d="M474.4,209.4c4.1-5.8,8.2-11.5,12.4-17.2c6.4,0.5,12.8,1.1,19.2,1.8
	c-3.2-6.3-6.6-12.5-10-18.6c2.7-6.8,5.3-13.6,8.1-20.4c-6.5,1.9-13,4-19.4,6.1c-5-4.5-10.1-9-15.3-13.3c-0.3,7.2-0.5,14.4-0.8,21.6
	c-5.6,4.1-11.1,8.2-16.6,12.4c6.1,2.1,12.2,4.3,18.2,6.6C471.6,195.4,473,202.4,474.4,209.4"/>
<path id="Luz" class="st6" d="M398.6,124.3c-1,0.6-1.9,0.9-2.9,0.8c-0.9-0.1-1.6-0.2-1.8-0.5c-0.5-0.4-0.8-1.2-0.9-2.2l-0.1-1.4
	c2.2-0.3,7.1-6.5,1.7-10.4c-3-2.1-25.7-10.9-66.9,0.1c-22.5,6-24.5,3.8-21.6,0.5c4.4-0.9,8.7-1.9,13.1-2.9c4.7-1.1,9.3-2.2,13.8-3.3
	c4.4-1.1,8.6-2,12.5-2.9c3.9-0.9,7.3-1.5,10.3-2c6.6-1.1,12.8-1.7,18.8-1.7c5.9,0,11.2,0.5,15.7,1.4c4.5,1,8.1,2.4,10.9,4.3
	c2.8,1.9,4.4,4.3,4.8,7c0.5,3.3-0.1,6-1.8,8.1C402.5,121.4,400.6,123.1,398.6,124.3z M545.1,232.4c3.1-4.8-1.4-8.4-1.4-8.4
	c-14.3-8.1-27,6.8-27,6.8C543.7,216.6,542,237.2,545.1,232.4z M307.4,228.5c2.9-4-1.3-6.9-1.3-6.9c-13.6-6.7-25.6,5.6-25.6,5.6
	C306.1,215.5,304.5,232.5,307.4,228.5z M227.6,234.4c2.9-4-1.3-6.9-1.3-6.9c-13.6-6.7-25.6,5.6-25.6,5.6
	C226.3,221.4,224.6,238.4,227.6,234.4z M613.1,236.9c3.1-4.8-1.4-8.4-1.4-8.4c-14.3-8.1-27,6.8-27,6.8
	C611.8,221.1,610.1,241.8,613.1,236.9z M444.5,220.9c6.3,4.6,5.9,15.6,5.9,15.6s6.3-14.3-2.9-19.3c-9.2-5-17.7,5.5-17.7,5.5
	S438.1,216.3,444.5,220.9z M358.3,218c6.3,4.6,5.9,15.6,5.9,15.6s6.3-14.3-2.9-19.3c-9.2-5-17.7,5.5-17.7,5.5S352,213.4,358.3,218z
	 M493.7,165.5c-2.1,2.6-0.5,10-0.1,11.7c0.8,3.1,0.9-6,0.9-6l5.1-12c0,0-4.8,2.1-10.6,4s-10-0.5-10-0.5
	C482.1,167.2,493.7,165.5,493.7,165.5z"/>
<path id="CBlanco" class="st7" d="M752.6,230.2c-0.7-2-1.7-3.8-2.9-5.4c-1.3-1.5-2.8-2.8-4.4-3.8c-0.9-0.5-2.2-0.9-4-1.3
	c-4.3-0.9-8.1-0.3-11.6,1.6c-3.4,2-6.6,4.4-9.4,7.3c-3.2,3.1-6.1,7-8.6,11.5c-4.6,5.4-11.5,13.4-20.6,24.2
	c-9.1,10.8-19.1,21.7-30,32.7c-1.4-0.2-2.7-0.3-3.9-0.4c-0.4-1.1-1.2-2-2.4-2.8c-1.8-1.1-3.4-1.5-5-1.2c-1.6,0.3-3,0.9-4.4,1.7
	c-1.4,1.1-2.6,2.4-3.6,3.8c-0.6,0.7-1.2,1.5-1.8,2.3c-2.6,1.3-5,2.8-7.1,4.5c-4.1,2.9-7.5,6.5-10.3,10.7c-2.7,3.7-4.9,7.3-6.5,10.8
	c-2,1.7-3.9,3.4-5.9,5c-5.9,4.7-11.3,8.3-16.2,10.8c-4.9,2.5-8.5,2.5-10.8,0.1c-1.7-1.7-1.5-4.9,0.7-9.5c2.2-4.6,4.9-9.4,8.2-14.4
	c4-5.8,8.5-12.2,13.6-19.2c2.2-2.9,5.3-7.3,9.5-13.3c4.2-6,7.6-12.5,10.3-19.5c2.7-7,4.1-14,4.2-20.8c0-6.8-3-12.4-9.1-16.8
	c-4.7-3.3-9.5-5.1-14.6-5.6c-5.1-0.5-10.3-0.1-15.5,1.3c-5.3,1.4-10.5,3.5-15.6,6.4c-5.1,2.9-10,6.2-14.7,9.8
	c-11.1,8.3-22.1,18.8-33,31.8c-3.9,4.6-7.4,9-10.6,13.2c-3.2,4.2-6.3,8.3-9.2,12.4c4.1-6.4,8-12.6,11.9-18.5
	c3.8-5.8,7.4-10.8,10.6-14.8c3.9-4.9,7.5-9.4,10.7-13.4c7-7.4,10.9-14.6,11.9-21.5c1-6.9-2.3-11.2-9.9-12.9c-4.3-1-8.1-1.1-11.7-0.2
	c-3.5,0.9-6.9,2.4-10.2,4.4c-3.3,2-6.4,4.4-9.1,7.3c-2.8,2.8-5.4,5.7-7.8,8.6c-3.6,4.9-7.4,10.2-11.4,15.7c-3.3,5-7,10.8-11.1,17.6
	c-1.5,2.4-2.9,4.9-4.3,7.4c-0.3-0.6-0.6-1-0.9-1c-1.6,0-2.9,0.4-4,1.1c-1.1,0.8-2,1.4-2.6,2.1c-0.9,1.2-1.7,2.3-2.4,3.2
	c-2.9,4.9-7,10.3-12.5,16.1c-5.5,5.8-11.3,11.2-17.4,16.3c-6.1,5-11.9,9.3-17.4,12.8c-5.5,3.5-9.6,5.2-12.4,5.2
	c-3.4,0-5.1-1.8-5-5.2c0.1-4,2.1-9.8,6.1-17.3c4-7.5,8.5-15.2,13.6-23.1c5.1-7.8,10-15.2,15-22.1c4.9-6.9,8.5-11.7,10.7-14.5
	c3.5-4.6,6.2-9.1,8.1-13.4c1.9-4.3,2.9-8.3,3-12c0.1-3.7-1.1-7-3.3-9.8c-2.3-2.8-6.1-4.3-11.3-4.3c-4.3-0.1-8.4,1.2-12.1,3.8
	c-3.8,2.6-7.2,5.4-10.3,8.5c-3.5,3.7-6.9,7.8-10.4,12.4c-7.6,10.4-14.5,20.9-20.9,31.3c-5.4,8.9-10.8,18.8-16.2,29.8
	c-5.4,10.9-9.3,21.3-11.6,31.2c-1,4.3-1.5,8-1.5,11.1c-0.1,6.8,1,12,3.3,15.6c2.3,3.6,5,6.3,8,8.2c3.4,2.2,7.2,3.7,11.6,4.3
	c7.1,0.1,14.4-1.5,21.7-4.8c7.3-3.3,14.4-7.5,21.3-12.7c6.9-5.2,13.3-10.8,19.3-16.9c5.2-5.4,10-10.5,14.2-15.5
	c-1.2,4.4-2.2,8.9-3,13.5c-1.2,7.7-1.2,14.8,0,21.3c1.2,6.5,4.7,11,10.4,13.4c6,2.8,13.4,3,22.3,0.8c4.2-1.1,6.5-3.1,7.1-5.8
	c0.4-0.9,0.3-1.6-0.3-2.1c-0.6-0.5-1-1-1.3-1.3c-1.8-1.1-3-2.6-3.8-4.6c6.7-14.6,15.2-28.5,25.3-41.6c10.2-13.2,20.3-24.7,30.5-34.6
	c10.2-9.9,19.4-17.6,27.7-23.2c8.3-5.6,14-8,17.1-7.4c1.5,0.5,2.8,1.4,3.9,2.7c0.5,1.3,0.7,3,0.7,5.2c-0.1,2.2-1.2,5.3-3.5,9.5
	c0.5-1.5,0.7-2.9,0.9-4.1c0.3-2.8-0.1-5-1.2-6.7c-1.2,3-2.9,5.3-4.9,7c-7.1,9-13.8,18-19.9,27c-5.1,7.6-10.1,15.8-15,24.7
	c-4.9,8.9-8.5,16.9-10.8,24.2c-2.8,9.1-3.4,16.3-1.9,21.8c1.5,5.4,3.8,9.6,7,12.4c3.4,3.5,7.8,5.8,13.3,6.9c2.3,0.4,4.5,0.6,6.8,0.6
	c-1.5,6.9-3.8,17.3-3.4,17.9c0,0,0.1-0.1,0.1-0.1c0.2,1.2,1.4,2.2,3.2,3c-1.7,4.2-3.2,8.5-4.8,12.7c-3.6,9.9-7.4,19.9-10.2,30.1
	c-5.3,19.7-6.8,42.1,4.1,60.3c2.2,3.6,4.9,7.1,8.1,10.1c-1.1,5.3-1.3,10.8-0.7,16.3c2.5,21.4,17,38.4,27.1,56.6
	c4.4,8.1,7.9,16.5,9.6,25.6c1.5,8.4,1.6,17,0.1,25.4c-2.8,15.6-11.8,30.1-26.2,37.3c-12.7,6.3-28.7,7.4-41.5,0.6
	c-3-1.6-6-3.6-8.4-6.1c-2.4-2.5-6.6,1.1-4.1,3.6c5.2,5.3,11.4,9.2,18.5,11.2c7.2,2,14.7,2.3,22,1.1c15.1-2.4,28.6-11.1,36.7-24.1
	c8.9-14.3,11.3-32,8.6-48.5c-1.4-8.6-4.3-16.9-8.3-24.6c-4.7-9.2-10.6-17.8-15.9-26.7c-5.2-8.6-10-17.6-12-27.5
	c-1.1-5.3-1.3-10.8-0.6-16.1c8.8,6.4,19.7,9.7,30.5,7.3c15.1-3.4,28-19,24.6-34.9c-2-9.3-9.4-17-19.3-16.9
	c-8.7,0-16.8,4.6-23.2,10.2c-7.3,6.4-12.7,14.7-15.7,23.9c-11.8-13.2-13.7-32.6-11.2-49.6c1.5-9.9,4.4-19.5,7.7-28.9
	c3.1-9,6.2-17.9,9.3-26.9c2.1,0.3,4.4,0.4,6.9,0.2c8-0.5,14.4-3.5,14.2-6.6c-0.2-3.1-6.9-5.2-14.9-4.7c-0.9,0.1-1.8,0.2-2.7,0.3
	c0.1-0.4,0.2-0.7,0.3-1.1c4.7-1.9,9.8-2.7,15-2.7c-0.8-1.9-5.7-5.1-10.5-9.6c0.3-0.1,0.7-0.2,1-0.3c7.1-2.6,14-6.3,20.7-11
	c1.3-0.9,2.6-1.9,3.9-2.9c2-0.4,4.2-1.1,6.7-2.1c1.6,4.5,3.7,8.3,6.2,11.5c2.5,3.2,5,5.9,7.4,7.9c3,2.5,6,4.6,9.2,6.2
	c6.9,3.6,13.5,6.1,19.9,7.5c11.3,2.3,21.2,1.6,29.6-2.4c8.5-3.9,15.6-9.7,21.5-17.4c5.9-7.6,10.6-16.3,14.3-26
	c3.6-9.7,6.4-19.1,8.3-28.2c1.5-7.3,2.5-13.7,2.8-19.3c0.4-5.6,1.1-11,2.2-16.2c1.2-5.8,2.6-10.9,4.2-15.5c1.6-4.6,3.2-8.4,4.8-11.6
	c2-3.7,4-6.9,5.8-9.7c2.3-3.6,3.7-6.5,4.2-8.6C753.4,234.5,753.3,232.3,752.6,230.2z M584.4,486.1c5.6-5.3,13.2-10.3,21.2-9.9
	c8.4,0.3,13.8,8.1,13.8,16.1c0,7.1-3.6,13.7-8.9,18.4c-5.6,5-12.8,7.3-20.3,6.6c-7.1-0.6-13.9-3.8-19.4-8.3c0.2-0.8,0.4-1.6,0.7-2.3
	C574,498.9,578.4,491.7,584.4,486.1z M695.4,291c0.1,0.3,0.2,1.1,0.3,2.2c0.1,1.1-0.1,3.2-0.6,6.3c-0.5,3.1-1.6,8.7-3.3,16.9
	c-0.9,4.6-2.2,9.2-3.6,14c-1.5,4.8-3.2,9.1-5.3,12.9c-2.1,3.8-4.6,6.8-7.6,8.9c-3,2.1-6.3,2.7-10,1.9c-5.5-1.2-9.2-3.3-10.9-6.5
	c-1.7-3.2-2.3-6.5-1.6-9.8c1.3-6.4,4.3-11.4,8.9-15c4.6-3.6,8.6-5.1,12-4.4c2.2,0.4,3.5,1.3,4.1,2.5c0.5,1.2,1.9,2.1,4.1,2.5
	c1.8,0.4,3-0.6,3.5-3.1c0.8-3.6,0.4-6.7-1.2-9.3c-1.6-2.5-3.3-4.6-5.2-6.3c2.8-2.9,5.6-5.8,8.3-8.7c2.7-2.9,5.7-6.1,9-9.5
	C695.5,289.1,695.3,290.6,695.4,291z M372.2,241.1c0.9-9.4-0.1-16.9-2.9-22.6c-2.8-5.7-6.8-8.9-11.8-9.7c-4.1-0.6-7.7-0.4-10.9,0.5
	c-3.2,0.9-5.9,2.3-8.3,4.2c-2.3,1.9-4.3,4.1-6,6.6s-3,4.7-4.1,6.7c-0.5,1-0.9,2.1-1.1,3.4c-0.4,2.2,0.5,4.3,2.9,6.3
	c5.7,4.8,8.3,10.9,7.7,18.5c-0.6,7.5-2.4,14.8-5.6,21.9c-3.6,8.4-8.6,17.1-15,26c-5.6,7.6-11.7,14.3-18.3,20
	c-6.7,5.7-13.4,10.6-20.2,14.6l-0.4,0.5c-3.5,2.5-7,3.9-10.4,4.2c-2.8,0.2-5.4-0.5-7.9-2.1c-2.5-1.7-4-5.3-4.4-10.8
	c1.5,2.7,3,4.6,4.7,5.7c3.7,3.1,8.4,3.2,14,0.2c-1.1-2.4-1.6-5.5-1.3-9.2c0.3-3.8,1.1-7.9,2.4-12.3c1.3-4.5,2.9-9.2,4.8-14.2
	c1.9-5,4-9.9,6.4-14.8c5.2-11.3,11.7-23.4,19.3-36.2c5.5-8.6,8.1-16.3,7.8-23.3c-0.3-7-4.3-10.6-12.1-10.8
	c-4.1-0.3-7.8,0.4-11.3,1.9c-3.4,1.5-6.5,3.6-9.3,6.2c-2.7,2.6-5.2,5.5-7.4,8.8c-2.2,3.3-4.3,6.6-6.1,9.9c-1.4,2.3-2.8,4.9-4.4,7.9
	c-1.3,2.6-2.9,5.6-4.6,9c-1.7,3.4-3.7,7.2-5.8,11.5c-2.4,4.9-5.2,11.5-8.5,19.9c-3.3,8.4-7.1,16.6-11.4,24.8
	c-4.3,8.1-9,15.2-14.3,21.1c-5.2,5.9-10.7,8.6-16.3,8.2c-3.4,0-5.7-1.4-6.9-4.1c-1.2-2.7-1.5-6.1-1.1-10.2c0.4-4.1,1.4-8.8,3-14
	c1.6-5.3,3.5-10.6,5.8-16.1c5.1-12.9,12.2-27.3,21.4-43.4c5.5-8.6,8.1-16.3,7.8-23.3c-0.3-7-4.3-10.6-12.1-10.8
	c-4.1-0.3-7.8,0.4-11.3,1.9c-3.4,1.5-6.5,3.6-9.3,6.2c-2.7,2.6-5.3,5.5-7.6,8.8c-2.4,3.3-4.5,6.6-6.4,9.9
	c-5.9,10.5-11.2,21.5-15.8,33.1c-1.6,4.3-3.2,8.8-4.6,13.4c-0.2-0.1-0.4-0.2-0.6-0.2c-1.7-0.6-3.2-0.5-4.5,0.2
	c-1.3,0.7-2.4,1.7-3.4,2.9c-1,1.5-2,3.1-3.2,5c-1.5,4.8-3.9,10-7.1,15.8c-3.2,5.8-6.7,11.4-10.4,17c-3.7,5.6-7.5,10.7-11.5,15.3
	c-3.9,4.6-7.2,8.2-9.8,10.7c-3,2.2-5.6,3.3-7.9,3.1c-2.6-0.1-4.3-0.7-5.1-1.8c-0.9-1.1-1.7-2.8-2.5-5.2c-2.4-12.5-2.5-25.5-0.5-39.1
	c2-13.6,5.2-27,9.6-40.3c4.4-13.3,9.7-26.2,15.7-38.6c6.1-12.4,12.1-23.7,18.2-33.8c-5.3,1.8-10,2.8-14.1,3
	c-4.1,0.2-7.4,0.3-9.9,0.2c-3.2-0.3-5.9-0.8-8-1.6c9.8-1.8,17.8-3.6,24-5.6c6.2-2,10.5-3.4,12.9-4.2c15.7-5.3,32.3-11.4,49.8-18.3
	c17.5-6.9,34.9-13.7,52.2-20.5c17.3-6.7,34-12.7,50.1-17.9c16.2-5.2,30.6-8.7,43.4-10.5c12.8-1.8,23.3-1.4,31.6,1.1
	c8.3,2.5,13.4,8.1,15.3,16.9l0.8,3.6c0.6,2.7,1.6,4.6,3.1,5.5c0.7,0.5,2.3,0.6,4.6,0.4c2.3-0.2,4.6-1.3,6.7-3.3
	c4.5-4.1,8.4-9.3,11.6-15.6c3.3-6.2,3.6-13.7,1.1-22.4c-2.2-7.1-7-12.7-14.5-16.6c-7.5-3.9-16.9-6.2-28.3-6.8
	c-11.4-0.6-24.3,0.5-38.8,3.1c-14.5,2.6-29.5,6.9-45,12.8c-7.1,2.5-15.2,5.7-24.3,9.7c-9.1,4-18.9,8.4-29.3,13.2
	c-10.4,4.8-21.1,9.7-32.3,14.8c-11.1,5.1-22.2,9.9-33.3,14.5c3.9-5.3,6.1-10,6.5-14.2c0.4-4.2,0.1-7.6-0.8-10.3
	c-1.3-3.2-3.2-6-5.6-8.3c-3.8-3-7.7-4.1-11.7-3.4c-4,0.7-7.6,2.2-10.9,4.5c-3.9,2.4-7.9,5.8-12.1,10.2c-3.1,3.5-6.2,7.5-9.3,12
	c-2.9,4.1-6.3,8.9-10,14.3c-3.8,5.4-7.7,11.7-11.9,18.9c-9.3,2.6-17.1,3.8-23.5,3.6c-6.4-0.2-10.8-2.1-13.1-5.7
	c-1.1-2-2.4-2.5-4.1-1.5c-0.8,0.5-1.5,1.1-2,1.9c-1.2,1.8-2.2,4-2.9,6.3c-0.8,2.4-1.1,4.8-1.1,7.1c0,2.4,0.8,4.8,2.2,7.1
	c1.5,2.4,3.8,4.3,7,5.9c5.6,2.6,13.7,3.2,24.2,1.9c-7.6,16.5-14.3,35.1-20.1,55.7c-5.9,20.6-9,42.8-9.2,66.6
	c0,4.4,0.2,10.3,0.7,17.7c0.5,7.3,1.6,14.8,3.4,22.3c1.8,7.5,4.5,14.1,8,19.7c3.6,5.6,8.6,8.6,15,9.1c5.5,0.4,10.7-0.6,15.8-2.9
	c5-2.3,9.9-5.7,14.5-10c4.6-4.3,9-9.3,13.2-15c4.2-5.6,8-11.4,11.5-17.2c4.1-7,8.1-14.6,11.8-22.7c-0.2,5.5,0,11,0.6,16.5
	c0.5,5.6,2,10.6,4.6,15c2.2,3.9,5.4,7.4,9.6,10.6c1.9,1.5,4.2,2.6,6.9,3.4c-4.9,4.5-9.8,7.8-10.6,9.6c5.2,0,10.2,0.8,14.8,2.6
	c-0.7-0.1-1.4-0.2-2.1-0.2c-8-0.5-14.7,1.6-14.9,4.7s6.1,6.1,14.2,6.6c2.8,0.2,5.4,0,7.6-0.3c2.8,8.2,5.7,16.3,8.5,24.5
	c3.2,9.4,6.2,19,7.7,28.9c2.5,17,0.6,36.4-11.2,49.6c-3-9.1-8.4-17.5-15.7-23.9c-6.4-5.6-14.5-10.1-23.2-10.2
	c-9.9-0.1-17.3,7.6-19.3,16.9c-3.4,15.9,9.5,31.5,24.6,34.9c10.8,2.4,21.7-0.9,30.5-7.3c0.7,5.3,0.5,10.8-0.6,16.1
	c-2.1,9.9-6.9,18.9-12,27.5c-5.3,8.9-11.2,17.4-15.9,26.7c-4,7.8-6.9,16-8.3,24.6c-2.7,16.5-0.3,34.1,8.6,48.5
	c8.1,13,21.6,21.7,36.7,24.1c7.3,1.2,14.9,0.9,22-1.1c7.2-2,13.4-5.9,18.5-11.2c2.5-2.5-1.6-6.1-4.1-3.6c-2.4,2.5-5.4,4.5-8.4,6.1
	c-12.8,6.7-28.8,5.7-41.5-0.6c-14.4-7.2-23.4-21.7-26.2-37.3c-1.5-8.4-1.4-17,0.1-25.4c1.7-9.1,5.1-17.5,9.6-25.6
	c10-18.2,24.6-35.3,27.1-56.6c0.6-5.4,0.4-10.9-0.7-16.3c3.2-3,5.9-6.4,8.1-10.1c10.9-18.2,9.4-40.6,4.1-60.3
	c-2.8-10.2-6.5-20.2-10.2-30.1c-1.3-3.5-2.6-7-3.9-10.5c1-0.5,1.7-1.1,2.1-1.7c0.1,0.1,0.2,0.2,0.3,0.3c0.1-0.1,0.1-0.5,0-1.1
	c0-0.1,0.1-0.3,0.1-0.4c0-0.5-0.1-0.9-0.4-1.4c-0.7-3.9-2.2-11-3.3-15.9c8.2-0.1,15.9-3,22.9-8.6c7.4-5.9,14-13.2,19.8-21.8
	c1,4.3,2.5,8.4,4.6,12.4c2.1,4,5.4,7.4,10,10.1c1,0.5,2.6,1.2,4.8,1.9c2.2,0.7,5,0.6,8.4-0.3c10.5-4.3,20.5-9.9,30-16.8
	c9.5-6.9,17.7-13.7,24.6-20.6c8-7.8,15.4-16,22.1-24.3c10.9-14,19-27.2,24.3-39.7C368.3,261.4,371.3,250.5,372.2,241.1z
	 M168.9,518.7c-7.5,0.7-14.6-1.6-20.3-6.6c-5.3-4.6-8.9-11.3-8.9-18.4c0-8,5.3-15.8,13.8-16.1c8-0.3,15.6,4.7,21.2,9.9
	c5.9,5.6,10.4,12.7,12.9,20.5c0.3,0.8,0.5,1.6,0.7,2.3C182.9,514.9,176,518.1,168.9,518.7z M470.1,188.4c-6-2.3-12.1-4.5-18.2-6.6
	c5.5-4.2,11-8.3,16.6-12.4c0.3-7.2,0.6-14.4,0.8-21.6c5.2,4.3,10.3,8.7,15.3,13.3c6.4-2.1,12.9-4.1,19.4-6.1
	c-2.7,6.8-5.4,13.6-8.1,20.4c3.4,6.1,6.8,12.3,10,18.6c-6.4-0.7-12.8-1.3-19.2-1.8c-4.2,5.7-8.3,11.5-12.4,17.2
	C473,202.4,471.6,195.4,470.1,188.4z"/>
</svg>
